<?xml version="1.0" encoding="UTF-8"?>
<svg xmlns="http://www.w3.org/2000/svg" viewBox="0 0 410.8 437.22">
  <g style="isolation: isolate;">
    <g id="Capa_2" data-name="Capa 2">
      <g id="OBJECTS">
        <g>
          <path d="M399.09,404.41l-8.03,8.01c-.32-4.79-.16-9.98.5-13.34-1.01.1-2.01.18-3.02.28.74-3.4,2.95-6.6,5.37-9.22,3.42-3.72,7.5-7.07,9.42-11.74,2.55-6.19.7-13.33-2.22-19.35-2.92-6.02-6.89-11.58-8.9-17.97-2.5-8.03-1.67-16.74.2-24.95,1.86-8.2,4.71-16.18,6.25-24.45,1.4-7.56,1.39-16.2-3.73-21.91l-.04-.04c-2.98-3.31-7.25-5.12-11.46-6.54-17.76-5.99-37.24-6.84-55.46-2.43-7.31,1.78-14.88,4.73-19.18,10.91-3.3,4.76-4.17,10.86-3.69,16.63.48,5.76,2.22,11.35,3.74,16.93,3.89,14.24,6.43,29.79.9,43.47-.43,1.08-.92,2.13-1.43,3.17,0-.24-.01-.48-.02-.71-.05-1.8-.13-3.7-1.15-5.18-1.53-2.2-4.52-2.65-7.08-3.48-.65-.21-1.31-.52-1.93-.89,1.61-.08,3.22-.18,4.83-.29-1.01-5.36-.96-10.87.49-16.13-19.61,1.35-39.12,2.63-58.71,2.79-2.52-.02-5.05-.05-7.58-.12,0,.04,0,.09,0,.13,2.52.02,5.03,0,7.54-.01-5.26.04-10.53.02-15.81-.12.38,3.9.4,7.83.05,11.72,1.58.13,3.17.25,4.76.37-.54.76-1.26,1.42-2.05,1.9-1.9,1.16-4.15,1.71-5.9,3.1-3.14,2.48-3.86,6.9-4.21,10.89-1.43,15.92-.89,31.93-.22,47.91.05,1.19.1,2.38.15,3.56.08,1.94.2,4,1.36,5.56,1.01,1.39,2.61,2.18,4.28,2.67h-11.99c-.95-51.37.02-100.59,3.66-146.84l16.83-21.46-30.83,1.12-1.1-10.35c-41.26,3.23-81.23,4.52-119.62,3.39l2.67,21.47c1.29,20.55,2.23,40.81,2.73,60.7h0c.29,11.27.42,22.41.41,33.42h0s0,0,0,0c0,3.3-.02,6.59-.05,9.87h0s0,0,0,0c-.04,4.21-.11,8.4-.19,12.57h0s0,0,0,0c-.26,12.21-.73,24.25-1.42,36.1h-6.02c2.7-29.35,4.15-49.68,3.05-75.21-.55-12.68-.55-26.87-2.56-40.11-2.04-13.5-6.16-26-15.04-34.87-2.45-2.45-4.03-5.71-5.28-8.95-.7-1.81-1.07-3.8-.95-5.71.91-.37,1.75-1.07,2.11-2.11.38-1.09.09-2.53-.79-3.08,1.03-2.16,1.02-5.34-.18-7.37.49-1.93.88-4.52-.35-5.93-.85-.98-2.17-1.07-3.36-1.1-5.58-.14-11.17-.28-16.72.36-1.48.17-3.06.44-4.18,1.6-1.12,1.15-1.45,3.5-.28,4.58-1.31,2.74-.81,6.54,1.06,8.79-.97,1.43-.28,4.17.89,5.37.19-.01.37-.02.56-.03-.14,2.98-1.32,5.99-2.96,8.5-2.57,3.92-6.13,7.08-8.97,10.8-7.57,9.97-9.28,23.2-10.06,35.79-2.03,32.62.41,65.39,3.38,98.06.32,3.54.65,7.08.98,10.62h-10.84v4.69l-11.71,5.88,11.71,11.12h398.88l.21-21.69-11.71-11.12ZM315.32,415.53h-11.06c1.54-.57,2.95-1.45,3.93-2.74,1.56-2.08,1.56-4.9,1.49-7.5-.13-5.02-.26-10.04-.38-15.06,3.48,3.5,6.91,6.98,8.18,11.45-.8-.02-1.6-.03-2.39-.06.74,3.8.75,9.66.23,13.92Z" style="fill: #f9e8e8;"/>
          <g>
            <g>
              <g>
                <g>
                  <g>
                    <path d="M70.44,405.01c-19.45,1.73-39.81,3.34-59.36,1.97-.41-4.4-.81-8.79-1.22-13.19-2.97-32.67-5.42-65.44-3.38-98.06.78-12.6,2.49-25.82,10.06-35.79,2.83-3.72,6.4-6.88,8.97-10.8,2.56-3.91,4.03-9.04,2.09-13.39l23.43-.43c-1.85,2.88-1.62,6.72-.36,9.95,1.25,3.24,2.82,6.49,5.28,8.95,8.88,8.87,13,21.38,15.04,34.87,2.01,13.24,2.01,27.43,2.56,40.11,1.1,25.71-.37,46.14-3.11,75.82Z" style="fill: #abc6db;"/>
                    <path d="M14.82,271.06c-6.4,40.48-2.4,86.93,3.36,129.97h46.47s9.25-93.8-4.44-129.97c-14.16,4.05-29.32,3.27-45.39,0Z" style="fill: #aeb37b;"/>
                    <g>
                      <g>
                        <path d="M39.5,382.36c.48-1.53,1.32-3.09,2.8-3.72,1.25-.53,2.73-.25,3.89.45,1.16.7,2.05,1.76,2.84,2.87,3.1,4.37,4.82,10.14,2.96,15.16-2.06,5.57-7.5,4.47-9.89.05-2.54-4.7-4.3-9.45-2.6-14.81Z" style="fill: #708a29;"/>
                        <path d="M42.04,380.69c.16-.23.35-.45.59-.59.24-.14.55-.2.8-.09.32.14.5.51.51.86s-.1.69-.22,1.03l-.86,2.46c-.12.33-.29.71-.63.77-.78.13-1.12-1-1.12-1.56,0-1.02.34-2.05.93-2.88Z" style="fill: #63771b;"/>
                      </g>
                      <g>
                        <path d="M29.47,382.96c.9-1.07,2.11-2.05,3.5-2.05,1.18,0,2.28.72,2.98,1.67.7.95,1.06,2.11,1.32,3.27,1.02,4.57.47,9.79-2.72,13.21-3.53,3.79-7.54,1.08-7.98-3.29-.46-4.64-.28-9.06,2.89-12.8Z" style="fill: #708a29;"/>
                        <path d="M32.08,382.47c.21-.13.43-.24.67-.28s.51.03.68.2c.21.22.23.58.12.87-.11.29-.32.52-.52.75-.51.56-1.02,1.13-1.52,1.69-.2.23-.47.48-.77.4-.67-.16-.56-1.18-.38-1.63.35-.82.96-1.54,1.72-2.01Z" style="fill: #63771b;"/>
                      </g>
                      <g>
                        <path d="M52.86,399.89c-.84-.48-1.66-1.17-1.84-2.11-.15-.8.19-1.64.75-2.24.56-.6,1.3-.99,2.05-1.31,2.97-1.28,6.58-1.57,9.31.16,3.02,1.91,1.69,4.98-1.21,5.83-3.09.91-6.11,1.35-9.05-.33Z" style="fill: #6a7f20;"/>
                        <path d="M52.2,398.19c-.11-.12-.22-.26-.27-.42-.05-.16-.05-.35.05-.48.12-.17.36-.23.57-.19.21.04.4.15.58.26.45.27.89.54,1.34.82.18.11.38.26.37.47-.02.47-.73.53-1.06.46-.6-.13-1.17-.46-1.58-.91Z" style="fill: #586816;"/>
                      </g>
                      <g>
                        <path d="M21.73,400.55c-1.26-.16-2.59-.59-3.29-1.65-.59-.9-.58-2.09-.2-3.09s1.08-1.85,1.83-2.61c2.97-3.03,7.21-5.18,11.39-4.44,4.62.82,4.53,5.21,1.42,7.69-3.3,2.64-6.75,4.67-11.16,4.1Z" style="fill: #6a7f20;"/>
                        <path d="M20.07,398.81c-.2-.09-.4-.21-.54-.38s-.23-.4-.18-.61c.06-.27.32-.46.6-.52.27-.06.56-.02.83.03.68.11,1.36.22,2.04.33.27.04.59.13.69.39.21.59-.62,1.01-1.05,1.09-.8.14-1.64.02-2.37-.32Z" style="fill: #586816;"/>
                      </g>
                      <g>
                        <path d="M28.94,390.19c-.21-1.26-.18-2.68.65-3.65.7-.83,1.85-1.16,2.93-1.09s2.1.51,3.05,1.02c3.78,1.99,7.09,5.47,7.58,9.72.54,4.7-3.72,5.89-7.02,3.6-3.5-2.43-6.47-5.17-7.19-9.59Z" style="fill: #7ea02f;"/>
                        <path d="M30.14,388.1c.03-.22.09-.44.21-.63.12-.19.32-.34.54-.35.28-.02.54.18.68.43.14.25.18.53.21.81l.27,2.06c.04.28.05.61-.17.77-.51.37-1.16-.31-1.36-.7-.37-.73-.5-1.58-.38-2.39Z" style="fill: #6b871e;"/>
                      </g>
                      <g>
                        <path d="M54.11,394.29c-1.28.05-2.68-.15-3.55-1.09-.74-.79-.93-1.98-.72-3.04s.76-2.02,1.38-2.91c2.44-3.51,6.29-6.37,10.56-6.34,4.73.03,5.39,4.4,2.72,7.4-2.84,3.18-5.91,5.79-10.39,5.98Z" style="fill: #7ea02f;"/>
                        <path d="M52.17,392.84c-.21-.06-.43-.14-.6-.28-.17-.14-.3-.36-.28-.58.02-.28.24-.51.5-.62.26-.11.55-.11.83-.11.69,0,1.39-.02,2.08-.02.28,0,.61.02.75.27.31.55-.45,1.11-.86,1.26-.77.27-1.63.3-2.41.09Z" style="fill: #6b871e;"/>
                      </g>
                    </g>
                    <g>
                      <g>
                        <path d="M67.85,298.21c-3.72,0-5.72-2.62-6.06-5.48l-46.1,1.6c.2,3.14-1.61,6.39-5.42,6.75l-.8,36.33c.44-.09.92-.14,1.43-.14,4.04,0,6.08,3.1,6.13,6.24l45.43-2.12c-.47-3.37,1.43-7.12,5.68-7.34v-35.86c-.1,0-.18.03-.28.03Z" style="fill: #fef5cc;"/>
                        <path d="M19.52,340.95c-.1,0-.19-.04-.26-.1-.07-.07-.12-.17-.12-.27-.04-2.48-1.63-5.15-5.05-5.15-.41,0-.81.04-1.19.12-.11.02-.23,0-.32-.08-.09-.07-.14-.18-.13-.3l.71-32.15c0-.19.15-.35.34-.37,3.28-.31,4.61-3.11,4.46-5.57,0-.1.03-.2.1-.28.07-.08.16-.12.26-.12l40.79-1.41c.19,0,.36.14.39.33.25,2.08,1.7,4.52,4.99,4.52.03,0,.06,0,.08,0,.05,0,.09-.01.15-.02.09,0,.2.03.28.1.07.07.12.17.12.27v31.73c0,.2-.16.36-.36.37-1.46.08-2.68.66-3.53,1.69-.94,1.14-1.37,2.77-1.14,4.38.01.1-.02.21-.08.29-.07.08-.17.13-.27.14l-40.2,1.87h-.02ZM14.1,334.68c3.74,0,5.58,2.78,5.78,5.5l39.43-1.84c-.13-1.67.36-3.35,1.35-4.55.92-1.11,2.2-1.78,3.71-1.93v-30.99c-3.51-.06-5.16-2.56-5.56-4.84l-40.08,1.39c.01,2.7-1.59,5.47-4.82,5.94l-.69,31.37c.29-.04.58-.06.88-.06Z" style="fill: #e58309;"/>
                      </g>
                      <g>
                        <g>
                          <path d="M20.02,311.42c1.09.03,1.86.51,2.3,1.47.13.38.18.8.16,1.26,0,1.08-.38,2.09-1.15,3.04-.62.61-1.41.91-2.37.91-1.12-.09-1.85-.7-2.18-1.84-.1-.37-.15-.78-.15-1.25.13-1.69.9-2.83,2.33-3.42.38-.12.73-.18,1.07-.18ZM18.48,315.18c.07.61.35.91.83.91.44,0,.89-.32,1.34-.95.15-.28.21-.62.2-1.03,0-.61-.26-.91-.79-.91s-1.03.4-1.47,1.19c-.1.27-.14.53-.12.79Z" style="fill: #e58309;"/>
                          <path d="M25.19,311.41l-.35,4.73,2.92-.04c-.05.95-.07,1.55-.07,1.81l-4.76.21.25-6.45,2.02-.26Z" style="fill: #e58309;"/>
                          <path d="M31.79,311.42l.16,1.89c-.33-.02-.66-.04-.97-.04l.14,3.08.97.11-.19,1.7h-3.63l-.11-1.65.92-.15v-3.12l-.84.05.23-1.74,3.31-.12Z" style="fill: #e58309;"/>
                          <path d="M36.17,311.42l2.1,1.11-1.75,5.58h-1.88s-1.97-5.51-1.97-5.51c.25-.15.95-.48,2.11-1,.05.09.31,1,.77,2.73l.62-2.92Z" style="fill: #e58309;"/>
                          <path d="M43.99,311.42l-.22,1.9-2.82.26.09.61,1.96-.06-.15,1.28-1.68.14.07.73,2.8-.18-.29,1.85c0,.06-1.5.12-4.47.17l-.62-6.3,5.33-.4Z" style="fill: #e58309;"/>
                          <path d="M50.77,311.42c1.09.03,1.86.51,2.3,1.47.13.38.18.8.16,1.26,0,1.08-.38,2.09-1.15,3.04-.62.61-1.41.91-2.37.91-1.12-.09-1.85-.7-2.18-1.84-.1-.37-.15-.78-.15-1.25.13-1.69.9-2.83,2.33-3.42.38-.12.73-.18,1.07-.18ZM49.23,315.18c.07.61.35.91.83.91.45,0,.89-.32,1.34-.95.15-.28.21-.62.2-1.03,0-.61-.26-.91-.79-.91s-1.03.4-1.47,1.19c-.1.27-.13.53-.12.79Z" style="fill: #e58309;"/>
                          <path d="M57.25,311.42l.16,1.89c-.33-.02-.66-.04-.97-.04l.14,3.08.97.11-.19,1.7h-3.63l-.11-1.65.92-.15v-3.12l-.84.05.23-1.74,3.31-.12Z" style="fill: #e58309;"/>
                          <path d="M60.45,311.41l-.35,4.73,2.92-.04c-.05.95-.07,1.55-.07,1.81l-4.76.21.25-6.45,2.02-.26Z" style="fill: #e58309;"/>
                        </g>
                        <g>
                          <path d="M34.76,301.93c-.11.92-.17,1.85-.17,2.81s.04,1.81.12,2.57l-1.13-.11c-.04-.66-.06-1.29-.06-1.92s.02-1.22.07-1.78l-.47.63-.64-.54c.35-.51.72-1.15,1.12-1.9l1.16.23Z" style="fill: #e58309;"/>
                          <path d="M36.16,305.05c0-.53.07-1.04.2-1.53.13-.49.33-.9.61-1.24s.6-.51.97-.51.69.13.95.38c.48.48.71,1.26.71,2.35,0,.48-.08.93-.25,1.37-.17.44-.38.79-.65,1.05s-.53.39-.81.39c-.54,0-.96-.21-1.27-.62-.31-.41-.46-.96-.46-1.65ZM37.43,303.42c-.12.49-.18.98-.18,1.48s.06.87.17,1.12c.11.25.27.37.47.37.15,0,.29-.19.42-.58.13-.39.2-.83.2-1.31,0-1.2-.2-1.8-.6-1.8-.2,0-.36.24-.48.73Z" style="fill: #e58309;"/>
                          <path d="M40.22,305.05c0-.53.07-1.04.2-1.53.13-.49.33-.9.61-1.24s.6-.51.97-.51.69.13.95.38c.48.48.71,1.26.71,2.35,0,.48-.08.93-.25,1.37-.17.44-.38.79-.65,1.05s-.53.39-.81.39c-.54,0-.96-.21-1.27-.62-.31-.41-.46-.96-.46-1.65ZM41.5,303.42c-.12.49-.18.98-.18,1.48s.06.87.17,1.12c.11.25.27.37.47.37.15,0,.29-.19.42-.58.13-.39.2-.83.2-1.31,0-1.2-.2-1.8-.6-1.8-.2,0-.36.24-.48.73Z" style="fill: #e58309;"/>
                          <path d="M44.42,304.48c-.2-.23-.3-.55-.3-.97s.1-.81.31-1.18c.21-.37.49-.56.85-.56s.62.14.8.42c.18.28.27.63.27,1.05s-.11.79-.34,1.11c-.23.32-.48.48-.76.48-.35,0-.62-.12-.82-.34ZM45.42,307.36l-.65-.24c1.4-2.44,2.67-4.29,3.81-5.54l.54.34c-.65.73-1.26,1.52-1.84,2.38-.58.86-1.2,1.88-1.86,3.07ZM44.99,302.85c-.07.22-.1.43-.1.64,0,.38.12.57.35.57.08,0,.16-.08.24-.24.07-.16.11-.34.11-.55,0-.5-.11-.75-.33-.75-.11,0-.2.11-.27.33ZM47.53,307.03c-.2-.23-.3-.55-.3-.97s.11-.81.32-1.18.49-.56.85-.56.62.14.8.42c.18.28.27.63.27,1.05s-.12.79-.34,1.11-.48.48-.76.48c-.35,0-.62-.12-.82-.34ZM48.1,305.4c-.07.22-.1.43-.1.64,0,.38.12.57.35.57.08,0,.16-.08.24-.24.07-.16.11-.34.11-.55,0-.5-.11-.75-.33-.75-.11,0-.2.11-.27.33Z" style="fill: #e58309;"/>
                        </g>
                      </g>
                      <g>
                        <g>
                          <g>
                            <path d="M35.61,334.55c.18.43.28.94.07,1.35-.18.35-.56.57-.95.63-.39.06-.79-.01-1.17-.11-1.51-.4-2.97-1.37-3.5-2.84-.58-1.63.84-2.4,2.21-1.86,1.45.58,2.73,1.31,3.35,2.83Z" style="fill: #423c3c;"/>
                            <path d="M35.35,335.4c0,.08,0,.16-.02.24-.03.08-.09.15-.16.17-.1.03-.21-.02-.28-.1-.07-.08-.11-.18-.14-.27-.09-.24-.18-.47-.27-.71-.04-.1-.07-.21,0-.29.15-.17.44.02.54.14.19.23.31.52.33.82Z" style="fill: #6b871e;"/>
                          </g>
                          <g>
                            <path d="M41.54,323.68c.36-.3.81-.55,1.27-.47.39.07.71.37.88.73.17.35.22.76.24,1.15.07,1.56-.42,3.25-1.68,4.18-1.39,1.04-2.54-.09-2.43-1.55.12-1.55.44-2.99,1.71-4.04Z" style="fill: #423c3c;"/>
                            <path d="M42.42,323.67c.08-.03.16-.05.24-.05.08,0,.16.04.21.11.06.09.04.2-.01.29-.05.09-.14.15-.22.22-.2.16-.4.31-.6.47-.08.06-.18.13-.28.09-.21-.09-.12-.42-.03-.56.16-.25.41-.45.68-.56Z" style="fill: #6b871e;"/>
                          </g>
                          <g>
                            <path d="M52.45,332.16c.17.44.26.94.04,1.36-.19.35-.57.56-.97.61-.39.05-.79-.03-1.17-.13-1.5-.43-2.95-1.42-3.44-2.91-.55-1.64.89-2.39,2.24-1.82,1.44.61,2.7,1.36,3.3,2.89Z" style="fill: #423c3c;"/>
                            <path d="M52.18,333c0,.08,0,.16-.03.24-.03.08-.09.14-.17.17-.1.03-.21-.02-.27-.1-.07-.08-.1-.18-.14-.27-.08-.24-.17-.48-.25-.72-.03-.1-.06-.21,0-.29.15-.17.44.02.54.15.19.23.3.53.32.83Z" style="fill: #6b871e;"/>
                          </g>
                        </g>
                        <g>
                          <path d="M50.06,328.11c-7.26.77-14.47,1.97-21.58,3.6-2.65.61-5.29,1.28-7.92,2.01-.65.18-.38,1.2.28,1.01,9.1-2.52,18.39-4.34,27.77-5.41.54-.06,1.08-.11,1.62-.17-.09-.34-.15-.69-.17-1.04Z" style="fill: #e58309;"/>
                          <path d="M47.65,328.56c4.6-1.89,8.92-4.43,12.81-7.52-1.11,2.48-2.69,4.7-5.03,6.08-2.34,1.38-5.07,1.68-7.78,1.44Z" style="fill: #e58309;"/>
                          <path d="M59.63,332.83c-2.55-2.97-6.51-4.68-10.42-4.5,2.83,2.61,6.57,4.28,10.42,4.5Z" style="fill: #e58309;"/>
                          <path d="M40.62,330.25c2.76-2.66,5.07-5.79,6.8-9.21.49,2.03-.25,4.17-1.59,5.78-1.33,1.61-3.39,2.41-5.21,3.43Z" style="fill: #e58309;"/>
                          <path d="M42.55,329.74c4.4.29,8.65,2.35,11.6,5.62-4.24-.74-8.49-2.65-11.6-5.62Z" style="fill: #e58309;"/>
                          <path d="M32.84,331.18c2.55-2.85,5.41-5.43,8.5-7.68-.63,1.84-1.81,3.44-3.32,4.66-1.51,1.22-3.47,2.11-5.18,3.02Z" style="fill: #e58309;"/>
                          <path d="M31.27,331.61c5.02.03,10.02,1.29,14.45,3.64-5.05.45-10.22-.84-14.45-3.64Z" style="fill: #e58309;"/>
                          <path d="M27.68,332.09c2.15-3.33,5.03-6.19,8.38-8.3-1.59,3.65-4.81,6.55-8.38,8.3Z" style="fill: #e58309;"/>
                        </g>
                      </g>
                    </g>
                  </g>
                  <path d="M15.61,271.43c2.08-4,4.82-7.61,7.55-11.2,2.28-3,4.56-5.99,6.84-8.99.49-.64,1-1.3,1.7-1.71,1.99-1.15,4.72.47,5.37,2.67.65,2.2-.25,4.59-1.55,6.49-3.02,4.39-7.98,6.99-11.87,10.63-3.9,3.66-6.73,8.44-8.06,13.62-.16.62-.3,1.26-.67,1.79-.72,1.04-2.1,1.02-2.65-.14-.41-.86.09-2.88.21-3.75.44-3.3,1.6-6.47,3.12-9.41Z" style="fill: #fff; opacity: .8;"/>
                  <path d="M70.44,405.01c-19.45,1.73-39.81,3.34-59.36,1.97-.41-4.4-.81-8.79-1.22-13.19,13.54.36,26.98-6.4,36.32-16.4,10.62-11.37,16.52-26.41,19.88-41.6,3.38-15.3,4.42-31,4.92-46.7,2.01,13.24,2.01,27.43,2.56,40.11,1.1,25.71-.37,46.14-3.11,75.82Z" style="fill: #ccf3ff; mix-blend-mode: multiply;"/>
                </g>
                <g>
                  <path d="M27.91,240.67c6.22-.38,12.46-.61,18.69-.68,1-.01,2.02-.02,2.98-.37.96-.35,1.87-1.08,2.25-2.17s.09-2.53-.79-3.08c1.03-2.16,1.02-5.34-.18-7.37.49-1.93.88-4.52-.35-5.93-.85-.98-2.17-1.07-3.36-1.1-5.58-.14-11.17-.28-16.72.36-1.48.17-3.06.44-4.18,1.6s-1.45,3.5-.28,4.58c-1.31,2.74-.81,6.54,1.06,8.79-.97,1.43-.28,4.17.89,5.37Z" style="fill: #f4d956;"/>
                  <g>
                    <path d="M48.79,234.4c-6.67.22-13.35.43-20.02.65-.64.02-.64,1.07,0,1.05,6.67-.22,13.35-.43,20.02-.65.64-.02.64-1.07,0-1.05Z" style="fill: #e58309;"/>
                    <path d="M49.47,225.83c-7.31.34-14.62.68-21.93,1.03-.64.03-.64,1.08,0,1.05,7.31-.34,14.62-.68,21.93-1.03.64-.03.64-1.08,0-1.05Z" style="fill: #e58309;"/>
                    <path d="M49.45,229.39c-7.2.36-14.4.87-21.58,1.52-.63.06-.64,1.11,0,1.05,7.18-.65,14.38-1.15,21.58-1.52.64-.03.64-1.08,0-1.05Z" style="fill: #e58309;"/>
                  </g>
                </g>
              </g>
              <g>
                <g>
                  <polygon points="207.08 257.56 223.92 236.11 97.79 240.67 75.04 251.74 207.08 257.56" style="fill: #e58309;"/>
                  <path d="M193.97,245.52l-1.98-18.65c-41.26,3.23-81.23,4.52-119.62,3.39l2.67,21.47s76.61,6.31,118.93-6.22Z" style="fill: #f4d956;"/>
                  <g>
                    <path d="M193.96,245.52l13.12,12.05c-3.66,46.56-4.63,96.13-3.64,147.88h-19.01l3.24-150.79,6.28-9.14Z" style="fill: #fcae30;"/>
                    <g>
                      <path d="M193.97,245.52c-.74,7.57-1.4,15.19-1.97,22.84-.6,7.99-1.12,16-1.53,24.07-.23,4.14-.43,8.28-.6,12.44-.12,2.61-.22,5.23-.31,7.86-.18,4.91-.32,9.84-.43,14.77-.59,25.63-.36,51.62.65,77.95h-113.31c.73-12.18,1.22-24.57,1.48-37.14.08-4.17.15-8.37.19-12.58.03-3.28.05-6.57.05-9.87.01-11.02-.13-22.16-.41-33.42-.5-19.9-1.44-40.15-2.73-60.7,38.84,1.16,78.5-.98,118.93-6.22Z" style="fill: #f4d956;"/>
                      <g>
                        <g>
                          <path d="M192,268.35c-.91,12.08-1.63,24.26-2.14,36.52l-111.68,40.99c.01-11.01-.13-22.15-.41-33.42l114.23-44.09Z" style="fill: #ea493d;"/>
                          <g>
                            <path d="M93.8,312.48c2.9-1.44,5.12-1.17,6.66.82l-3.81,4.52c-.81-.48-1.62-.51-2.42-.1-2.13,1.18-3.2,2.99-3.22,5.41.39,1.82,1.36,2.36,2.88,1.62.69-.35,1.48-1.18,2.38-2.5l4.4.32c-1.1,3.88-3.55,6.73-7.34,8.57-2.74,1.26-4.94.61-6.59-1.95-.51-.9-.8-1.84-.88-2.83-.63-4.25,1.28-8.4,5.73-12.44.48-.46,1.21-.94,2.2-1.43Z" style="fill: #fef5cc;"/>
                            <path d="M116.58,304.31l-.6,5.46-7.79,3.51.25,1.6,5.41-2.1-.41,3.69-4.65,2.04.19,1.94,7.73-3.27-.79,5.39c-.03.17-4.13,1.8-12.32,4.89l-1.71-16.78,14.71-6.36Z" style="fill: #fef5cc;"/>
                            <path d="M126.82,300.76c2.52-.74,4.5-.24,5.92,1.51.26.52.36,1.17.32,1.94-.08,1.59-1.12,3.45-3.13,5.58.36.19,1.77,1.44,4.24,3.75l-4.34,4.44-4.2-4.52.26,5.19-5.61,2.78-2.67-16.35c1.06-.75,3.68-2.05,7.87-3.9l1.34-.42ZM124.94,306.58l.21,1.88c2.02-.89,3.04-1.67,3.08-2.35.03-.43-.25-.6-.81-.5-.66.17-1.49.49-2.47.96Z" style="fill: #fef5cc;"/>
                            <path d="M150.03,292.33l-.6,5.46-7.79,3.51.25,1.6,5.41-2.1-.41,3.69-4.65,2.04.19,1.94,7.73-3.27-.79,5.39c-.03.17-4.13,1.8-12.32,4.89l-1.71-16.78,14.71-6.36Z" style="fill: #fef5cc;"/>
                            <path d="M156.44,290.03l5.24-1.88,5.38,13.45-5.34,5.03-.73-2.29-4.15,1.48-1,2.81-5.02-.7,5.63-17.91ZM157.78,302.09l2.9-1.14-.98-2.92-.8.29-1.12,3.78Z" style="fill: #fef5cc;"/>
                            <path d="M174.33,283.6l-.98,13.4,8.05-2.99c-.14,2.68-.21,4.36-.21,5.06l-13.13,5.3.7-18.05,5.58-2.72Z" style="fill: #fef5cc;"/>
                          </g>
                        </g>
                        <g>
                          <path d="M189.55,312.72c-.18,4.91-.32,9.83-.43,14.77l-111.19,40.81c.08-4.17.15-8.36.19-12.57l111.43-43.01Z" style="fill: #ea493d;"/>
                          <g>
                            <path d="M105.32,348.38c-.33.12-.61.6-.85,1.45-.24.84-.37,1.56-.37,2.14,0,1.22.34,1.71,1.02,1.46.19-.07.36-.21.5-.42.14-.21.25-.41.31-.6.06-.19.14-.45.23-.77l1.41-.42c-.19.93-.48,1.68-.86,2.28-.38.59-.91,1.01-1.59,1.26-.8.29-1.41.24-1.84-.17-.43-.41-.65-1.05-.65-1.92,0-1.02.21-2.09.64-3.22.21-.56.5-1.06.87-1.5.37-.45.8-.76,1.28-.94.59-.22,1.02-.19,1.28.08.13.13.24.28.33.43.08.16.15.37.18.65.07.44.11.93.12,1.46l-1.43.4c0-.9-.09-1.43-.27-1.59-.08-.09-.19-.11-.32-.06Z" style="fill: #fffae6;"/>
                            <path d="M112.12,352.23c-.71.26-1.3.18-1.78-.23-.48-.42-.73-1.23-.73-2.44s.26-2.3.79-3.26c.53-.96,1.15-1.57,1.87-1.83.71-.26,1.31-.19,1.79.24.48.42.71,1.23.71,2.44s-.27,2.29-.8,3.25-1.15,1.58-1.85,1.84ZM111.44,346.81c-.24.62-.35,1.35-.35,2.16s.1,1.38.3,1.7c.2.32.46.42.76.31.3-.11.57-.48.8-1.11.23-.63.35-1.35.35-2.17s-.1-1.38-.29-1.7c-.2-.32-.44-.42-.72-.32-.33.12-.61.49-.84,1.12Z" style="fill: #fffae6;"/>
                            <path d="M117.24,350.07c.1-1.7.14-3.21.14-4.51s0-2.16-.01-2.57c.81-.66,1.66-1.15,2.54-1.48.65-.24,1.19-.25,1.63-.02.44.23.66.7.66,1.4,0,.82-.62,1.84-1.85,3.05.67.54,1.36,1.16,2.06,1.86l-1.06,1.13c-.46-.49-1.3-1.26-2.5-2.31-.02,1.08-.06,2.1-.1,3.05l-1.51.4ZM120.27,344.49c.38-.5.58-.9.58-1.19s-.09-.48-.27-.58c-.18-.09-.42-.08-.71.02-.3.11-.62.29-.97.54,0,1.17,0,2.05-.01,2.62.55-.44,1.01-.92,1.4-1.42Z" style="fill: #fffae6;"/>
                            <path d="M129.45,338.13v4.84c.01.8-.02,1.67-.08,2.61l-1.24.34c-.95-1.68-1.73-2.92-2.34-3.71,0,1.03.01,2.67.01,4.92l-1.3.34c-.02-.42-.03-.83-.03-1.24,0-1.68.1-3.68.3-5.99l1.47-.41c.73,1.63,1.39,2.83,1.97,3.6-.04-2.08-.1-3.72-.16-4.9l1.38-.4Z" style="fill: #fffae6;"/>
                            <path d="M140.38,334.26v1.28c-.83.3-1.6.62-2.33.93-.01.21-.03.57-.04,1.08-.01.52-.02.83-.03.95.83-.41,1.49-.71,1.99-.89l.22,1.06c-.83.33-1.57.65-2.23.97,0,1.08.01,2.04.04,2.85l-1.5.4c-.01-1.12-.02-2.16-.02-3.13s.06-2.26.18-3.87c1.26-.65,2.5-1.19,3.7-1.64Z" style="fill: #fffae6;"/>
                            <path d="M142.88,340.45c-.1-1.4-.14-2.69-.14-3.88s.04-2.29.12-3.29l1.47-.42c-.11,1.24-.17,2.4-.17,3.49s.02,1.89.06,2.39c.27-.13.92-.44,1.96-.93l.22,1.13c-.55.27-1.34.66-2.35,1.18l-1.17.34Z" style="fill: #fffae6;"/>
                            <path d="M151.9,337.08l-.25-1.35-1.65.67-.42,2.11-1.55.45,1.98-8.29,2.05-.59,1.45,6.53-1.61.47ZM150.93,331.69l-.7,3.5,1.24-.5-.54-3Z" style="fill: #fffae6;"/>
                            <path d="M156,335.61c-.05-1.04-.08-2.23-.08-3.57s.04-2.49.11-3.46l1.52-.42c-.07.89-.11,1.97-.11,3.24.93-1.78,1.63-3.25,2.1-4.39h1.4c-.53,1.2-1.25,2.63-2.16,4.28.74.83,1.45,1.4,2.14,1.71l-1.02,1.46c-.86-.47-1.68-1.24-2.46-2.31,0,1.27.03,2.29.08,3.06l-1.52.4Z" style="fill: #fffae6;"/>
                            <path d="M163.34,333c-.03-1.09-.04-2.12-.04-3.1s.06-2.28.18-3.89c1.26-.65,2.5-1.19,3.7-1.64v1.28c-.83.31-1.61.62-2.33.93-.03.79-.05,1.39-.05,1.81.56-.28,1.22-.57,1.99-.87l.21,1.07c-.5.19-1.24.52-2.23.98,0,.83,0,1.43.01,1.8.64-.29,1.41-.67,2.3-1.16l.19,1.08c-.63.5-1.37.91-2.23,1.23l-1.71.48Z" style="fill: #fffae6;"/>
                          </g>
                        </g>
                      </g>
                      <g>
                        <polygon points="80.93 399.12 81.95 382.64 108.12 380.91 105.89 399.19 80.93 399.12" style="fill: #e58309;"/>
                        <polygon points="114.91 380.91 112.92 398.1 182.52 398.1 182.52 377.21 114.91 380.91" style="fill: #e58309;"/>
                        <path d="M180.34,368.73c-25.22.91-50.42,2.55-75.54,4.93-7.15.68-14.3,1.42-21.44,2.21-1.33.15-1.35,2.26,0,2.11,25.08-2.79,50.25-4.86,75.45-6.19,7.18-.38,14.35-.69,21.54-.95,1.35-.05,1.36-2.15,0-2.1Z" style="fill: #e58309;"/>
                        <path d="M99.32,368.53c-5.17.56-10.35,1.12-15.52,1.69-1.33.14-1.35,2.25,0,2.11,5.17-.56,10.35-1.12,15.52-1.69,1.33-.14,1.35-2.25,0-2.1Z" style="fill: #e58309;"/>
                      </g>
                      <g>
                        <path d="M133.76,270.03c1.62,9.02-7.89,19.87-21.58,22.33-13.69,2.46-26.97-.47-28.59-9.49-1.62-9.02,9.04-20.71,22.73-23.16,13.69-2.46,25.82,1.31,27.43,10.32Z" style="fill: #fef5cc;"/>
                        <g>
                          <path d="M90.1,280.38c-.03-.79-.04-1.74-.04-2.84s.04-2.58.1-4.44c.59-.22,1.19-.32,1.81-.32s1.17.23,1.65.69.73,1.03.73,1.73-.26,1.29-.79,1.8c-.53.51-1.22.88-2.07,1.12,0,.78,0,1.58.03,2.41l-1.42-.14ZM92.53,276.26c.25-.3.38-.63.38-1s-.1-.67-.29-.9c-.19-.23-.41-.35-.64-.35-.06,0-.21.02-.43.05-.04.98-.06,1.94-.06,2.86.44-.14.79-.36,1.04-.66Z" style="fill: #e58309;"/>
                          <path d="M94.89,280.3c.09-1.68.14-3.17.14-4.48s0-2.17,0-2.59c.77-.36,1.57-.54,2.4-.54.61,0,1.13.2,1.54.59.42.39.62.94.62,1.65,0,.82-.58,1.62-1.75,2.38.63.8,1.28,1.67,1.95,2.63l-1.01.74c-.44-.66-1.23-1.75-2.37-3.25-.02,1.08-.05,2.08-.09,3.03l-1.42-.16ZM97.76,275.81c.36-.36.54-.69.54-.98s-.09-.52-.26-.68c-.17-.16-.4-.24-.68-.24s-.59.06-.92.18c0,1.18,0,2.06-.01,2.63.52-.24.96-.55,1.32-.91Z" style="fill: #e58309;"/>
                          <path d="M100.53,280.25c-.03-1.1-.04-2.15-.04-3.13s.06-2.27.17-3.84c1.19-.18,2.36-.27,3.5-.27v1.29c-.79,0-1.52.02-2.2.07-.03.78-.04,1.38-.05,1.8.53-.08,1.16-.12,1.89-.14l.2,1.15c-.47,0-1.17.06-2.11.16,0,.84,0,1.44.01,1.81.61-.05,1.33-.15,2.18-.31l.18,1.15c-.59.27-1.29.41-2.11.41l-1.61-.15Z" style="fill: #e58309;"/>
                          <path d="M105.01,280.27c-.06-1.82-.08-3.18-.08-4.11s.06-1.91.18-2.95l1.97.16c.24.88.5,2.11.77,3.7.39-1.28.74-2.66,1.04-4.15l1.98.18c.06,2.16.08,3.73.08,4.73s-.03,1.88-.09,2.66l-1.44-.14c.09-.88.17-2.74.23-5.59h-.08c-.07.26-.18.73-.33,1.39-.32,1.38-.63,2.55-.93,3.52l-.95-.08c-.17-.67-.36-1.54-.58-2.6-.22-1.06-.39-1.85-.51-2.35h-.08c.06,2.32.14,4.25.22,5.77l-1.38-.13Z" style="fill: #e58309;"/>
                          <path d="M113.67,272.96c-.06,1.1-.09,2.35-.09,3.73s.04,2.64.14,3.78l-1.41-.13c-.09-1.42-.14-2.71-.14-3.86s.03-2.37.09-3.65l1.41.13Z" style="fill: #e58309;"/>
                          <path d="M116.26,277.75c0,.36.08.69.24.97.16.29.35.43.57.43s.4-.1.53-.29c.13-.2.23-.45.28-.77.1-.57.15-1.22.15-1.96s-.04-1.83-.14-3.27l1.42.15c.1,1.44.15,2.42.15,2.93s0,.88-.02,1.08-.04.45-.08.72-.1.53-.17.76c-.07.24-.16.47-.28.71-.12.24-.26.44-.42.61-.36.38-.84.58-1.45.58s-1.13-.27-1.57-.82c-.43-.54-.65-1.15-.65-1.82,0-1.47.08-3.04.24-4.71l1.42.14c-.15,1.53-.23,3.06-.23,4.58Z" style="fill: #e58309;"/>
                          <path d="M120.49,280.27c-.06-1.82-.08-3.18-.08-4.11s.06-1.91.18-2.95l1.97.16c.24.88.5,2.11.77,3.7.39-1.28.74-2.66,1.04-4.15l1.98.18c.06,2.16.08,3.73.08,4.73s-.03,1.88-.09,2.66l-1.44-.14c.09-.88.17-2.74.23-5.59h-.08c-.07.26-.18.73-.33,1.39-.32,1.38-.63,2.55-.93,3.52l-.95-.08c-.17-.67-.36-1.54-.58-2.6-.22-1.06-.39-1.85-.51-2.35h-.08c.06,2.32.14,4.25.22,5.77l-1.38-.13Z" style="fill: #e58309;"/>
                        </g>
                      </g>
                    </g>
                    <path d="M191.39,284.39c.69-11.09,1.54-22.17,2.55-33.24.06-.67-.99-.67-1.05,0-1.78,19.64-3.08,39.33-3.87,59.04-.8,19.61-1.1,39.24-.92,58.86.1,11.11.36,22.23.78,33.33.03.68,1.08.68,1.05,0-.73-19.71-.98-39.44-.73-59.16.25-19.62.98-39.24,2.21-58.83Z" style="fill: #e58309;"/>
                  </g>
                  <path d="M189.6,245.59c-14.35,1.94-28.76,3.37-43.21,4.31-14.32.93-28.67,1.37-43.02,1.32-8.09-.03-16.17-.22-24.26-.56-.68-.03-.68,1.02,0,1.05,14.42.61,28.87.72,43.3.34,14.47-.39,28.94-1.27,43.35-2.66,8.05-.77,16.09-1.71,24.11-2.79.67-.09.38-1.1-.28-1.01Z" style="fill: #e58309;"/>
                </g>
                <path d="M189.12,327.49c-.59,25.63-.36,51.62.65,77.95h-112.71c43.27-31.59,81.65-69.86,113.41-113.02-.23,4.14-.43,8.28-.6,12.44-.12,2.61-.22,5.23-.31,7.86-.18,4.91-.32,9.84-.43,14.77Z" style="fill: #fd8; mix-blend-mode: multiply;"/>
              </g>
              <g>
                <g>
                  <g>
                    <g>
                      <path d="M296.48,401.66c-1.53,2.02-4.15,2.83-6.61,3.44-23.89,6-49.29,5.87-73.12-.37-2.09-.55-4.34-1.25-5.61-3-1.15-1.56-1.28-3.62-1.36-5.56-.05-1.18-.1-2.37-.15-3.56-.66-15.97-1.2-31.99.22-47.91.36-3.99,1.07-8.41,4.21-10.89,1.75-1.39,4-1.94,5.9-3.1,1.91-1.16,3.53-3.42,2.76-5.51,20.34-.65,40.72-.87,61.02.51-.69,2.6,2.06,4.81,4.61,5.64,2.56.83,5.55,1.28,7.08,3.48,1.02,1.48,1.1,3.39,1.15,5.18.07,2.81.14,5.6.21,8.41.39,15.24.78,30.49,1.16,45.73.07,2.6.07,5.42-1.49,7.5Z" style="fill: #abc6db;"/>
                      <path d="M215.92,347.53c-.19,14.45.28,28.91,1.43,43.32.18,2.3.43,4.72,1.81,6.57,1.92,2.59,5.44,3.28,8.64,3.71,18.74,2.48,37.86,2.12,56.5-1.06,2.97-.51,6.28-1.32,7.85-3.89,1-1.64,1.06-3.67,1.07-5.6.09-16.49-1.23-32.98-3.95-49.25-8.89,6.12-20.98,7.52-31.47,4.99-5.42-1.31-11.03-3.79-16.33-2.07-4.04,1.31-7.3,4.95-11.54,5.16-5.16.25-9.5-4.44-13.99-1.88Z" style="fill: #f4d956;"/>
                      <g>
                        <path d="M290.35,370.47c0,8.13-12.47,15.33-31.34,15.33s-36.98-7.2-36.98-15.33,12.57-14.72,31.44-14.72,36.88,6.59,36.88,14.72Z" style="fill: #fef5cc;"/>
                        <g>
                          <path d="M237.26,365.31l3.04.66.73,8.73-3.32,1.23-.13-3.03h-3.05l-.2,3.09-3.27-1.12.71-9.04,3.21-.72-.19,4.63h2.56l-.1-4.43Z" style="fill: #e58309;"/>
                          <path d="M247.76,365.05c1.91.04,3.24.84,4,2.41.22.63.31,1.32.28,2.08,0,1.77-.67,3.43-2,4.99-1.08,1-2.46,1.49-4.13,1.49-1.95-.15-3.22-1.15-3.81-3.02-.18-.6-.27-1.28-.26-2.04.22-2.77,1.58-4.64,4.06-5.61.66-.2,1.28-.3,1.86-.3ZM245.08,371.22c.12,1,.6,1.49,1.45,1.49.78,0,1.56-.52,2.34-1.56.26-.45.37-1.02.34-1.68,0-1-.46-1.49-1.38-1.49s-1.8.65-2.55,1.95c-.17.44-.24.87-.2,1.29Z" style="fill: #e58309;"/>
                          <path d="M262.48,365.05c-.74,7-1.18,10.67-1.32,11h-2.16l-2.64-4.35-.47,4.35h-2.93c-.02-2.74.12-6.27.42-10.58h2.84l1.86,3.48,1.08-3.66,3.31-.24Z" style="fill: #e58309;"/>
                          <path d="M272.57,365.05l-.38,3.12-4.92.43.16,1,3.42-.1-.26,2.11-2.94.22.12,1.2,4.88-.3-.5,3.04c-.02.1-2.61.19-7.79.28l-1.08-10.35,9.29-.65Z" style="fill: #e58309;"/>
                          <path d="M275.6,365.2l2.51,3.12,1.63-3.23,2.61,2-4.72,9.01-3.21-2.16,2.08-3.26-3.25-3.54,2.36-1.93Z" style="fill: #e58309;"/>
                        </g>
                      </g>
                    </g>
                    <path d="M296.48,401.66c-1.53,2.02-4.11,3.03-6.61,3.44-24.53,3.98-48.68,4.58-73.12-.37-2.12-.43-4.34-1.25-5.61-3-1.15-1.56-1.28-3.62-1.36-5.56-.05-1.18-.1-2.37-.15-3.56,18.39,7.06,40.01,5.42,57.02-4.57,14.69-8.61,25.63-23.24,30.16-39.61.39,15.24.78,30.49,1.16,45.73.07,2.6.07,5.42-1.49,7.5Z" style="fill: #ccf3ff; mix-blend-mode: multiply;"/>
                    <g>
                      <path d="M213.55,350.56c-.02-1.8-.03-3.63.37-5.39.4-1.76,1.26-3.47,2.7-4.56,1.44-1.09,3.52-1.42,5.08-.52,1.86,1.07,2.51,3.51,2.19,5.63-.32,2.12-1.39,4.03-2.25,5.99-1.54,3.5-2.46,7.24-3.11,11-.18,1.01-.34,2.05-.89,2.91-.8,1.25-2.48,1.82-3.48.52-.8-1.03-.51-2.45-.5-3.64.04-3.98-.07-7.97-.11-11.96Z" style="fill: #fff; opacity: .8;"/>
                      <path d="M222.65,335.73c-.16-.89.37-1.79,1.1-2.32.74-.52,1.65-.73,2.54-.89,3.72-.64,7.52-.49,11.29-.33.49.02,1,.05,1.42.31.95.6.78,2.15-.03,2.93s-2,.98-3.11,1.15c-2.74.42-5.49.85-8.23,1.27-1.34.21-4.97.02-4.97-2.12Z" style="fill: #fff; opacity: .8;"/>
                    </g>
                  </g>
                  <path d="M217.25,328.44c.35-3.9.33-7.83-.05-11.72,24.94.68,49.66-.96,74.55-2.67-1.45,5.26-1.5,10.77-.49,16.13-24.57,1.69-49.45.23-74-1.74Z" style="fill: #4b63a9;"/>
                </g>
                <path d="M233.04,316.83c-2.53-.02-5.05-.05-7.58-.12,0,.04,0,.09,0,.13,2.53.02,5.05,0,7.57-.01Z" style="fill: #d1ccbd; mix-blend-mode: multiply;"/>
              </g>
              <g>
                <g>
                  <g>
                    <path d="M391.62,367.26c-1.92,4.68-5.99,8.03-9.42,11.74-3.43,3.71-6.45,8.57-5.44,13.52-22.71-.68-47.9-.5-70.61-.26-.85-5.67-5.17-9.74-9.34-13.95h-.01c-3.24-3.27-6.39-6.61-7.72-10.86-1.61-5.1-.32-10.67,1.83-15.56,2.14-4.89,5.13-9.39,7.13-14.34,5.53-13.68,2.99-29.22-.9-43.47-1.53-5.58-3.26-11.17-3.74-16.93-.48-5.77.39-11.87,3.69-16.63,4.3-6.18,11.87-9.12,19.18-10.91,18.22-4.42,37.69-3.57,55.46,2.43,4.21,1.42,8.48,3.23,11.46,6.54.01.01.02.02.04.04,5.12,5.71,5.13,14.35,3.73,21.91-1.54,8.27-4.39,16.25-6.25,24.45-1.87,8.21-2.7,16.93-.2,24.95,2.01,6.39,5.98,11.95,8.9,17.97s4.76,13.16,2.22,19.35Z" style="fill: #ea493d;"/>
                    <g>
                      <g>
                        <path d="M309.17,290.06c6.03.06,12.07-.24,18.07-.91.12-4.99,3.07-10.06,7.35-12.64,4.28-2.58,9.88-2.82,14.35-.6,4.48,2.22,7.68,6.81,8.22,11.78,5.39.16,11.08.52,16.58.75,1.64.07,2.64,1.8,1.92,3.28-5.01,10.34-6.1,22.52-3.5,33.73,1.49,6.4,4.25,12.83,3.07,19.3-.95,5.23-4.49,9.77-8.9,12.74-4.6,3.1-10.09,4.65-15.56,5.46-8.92,1.33-18.05.7-26.73-1.76-5.65-1.6-11.71-4.2-14.73-9.35-4.06-6.92-1.28-15.6.2-23.48,2.15-11.47,1.36-24.18-2.48-35.31-.51-1.48.58-3.02,2.14-3Z" style="fill: #fef5cc;"/>
                        <path d="M341.57,361.43c-5.27,0-10.58-.77-15.68-2.29-4.31-1.29-10.39-3.61-13.37-8.98-3.16-5.68-1.82-12.42-.53-18.94.22-1.11.44-2.22.63-3.31,1.93-10.83,1.16-22.38-2.17-32.54-.28-.87-.13-1.82.4-2.54.49-.67,1.24-1.06,2.05-1.06h.03c5.11.06,10.28-.21,15.36-.78.29-4.65,2.96-9.31,6.75-11.73,3.95-2.51,9.17-2.74,13.3-.58,3.96,2.07,6.87,6.31,7.53,10.91,2.75.09,5.61.25,8.39.39,1.92.1,3.84.2,5.74.29.86.04,1.62.49,2.08,1.25.49.81.55,1.81.15,2.68-4.24,9.23-5.35,20.52-3.05,30.99.32,1.43.71,2.9,1.08,4.31,1.2,4.52,2.45,9.19,1.63,13.87-.81,4.7-3.77,9.17-8.11,12.25-3.64,2.58-8.22,4.28-14.01,5.19-2.7.42-5.45.63-8.2.63ZM312.91,293c-.42,0-.8.2-1.06.56-.3.41-.38.94-.22,1.43,3.39,10.35,4.17,22.12,2.21,33.14-.19,1.1-.42,2.21-.64,3.33-1.25,6.3-2.54,12.82.4,18.1,2.11,3.79,6.13,6.46,12.65,8.4,7.59,2.26,15.66,2.82,23.34,1.62,5.59-.88,10-2.5,13.49-4.98,4.08-2.89,6.85-7.07,7.61-11.45.77-4.42-.44-8.96-1.61-13.35-.38-1.43-.77-2.91-1.1-4.36-2.4-10.88-1.29-22.16,3.13-31.77.23-.5.2-1.07-.08-1.52-.24-.4-.64-.64-1.08-.66-1.9-.08-3.82-.19-5.75-.29-2.95-.16-6-.32-8.89-.41l-.54-.02-.05-.54c-.45-4.4-3.17-8.51-6.94-10.48-3.75-1.95-8.48-1.74-12.06.53-3.61,2.29-6.1,6.82-6.21,11.25v.53s-.54.06-.54.06c-5.3.63-10.7.91-16.04.85h-.01Z" style="fill: #7ea02f;"/>
                      </g>
                      <g>
                        <g>
                          <path d="M325.92,337.71l-1.36,2.49c-2.55-1.12-3.81-1.28-3.75-.46.16.36.69.66,1.6.89,2.7,1.11,4.01,2.44,3.94,3.97.03.98-.58,1.79-1.8,2.42-.49.26-1.27.42-2.34.49-1.23.04-2.63-.41-4.2-1.33l1.08-2.4c2.39.97,3.58,1.11,3.57.42-.09-.33-1.11-.89-3.07-1.68-1.26-.7-1.89-1.67-1.87-2.93-.11-1.29.66-2.35,2.31-3.17,1.98-.52,3.95-.09,5.89,1.29Z" style="fill: #ea493d;"/>
                          <path d="M330.04,336.2h3.19l3.28,9.36-3.25,1.9-.45-1.55h-2.52l-.61,1.49-3.06-1.52,3.42-9.67ZM330.86,343.83l1.76-.06-.6-1.99h-.49l-.68,2.05Z" style="fill: #ea493d;"/>
                          <path d="M337.13,336.2l3.25.45c-.07,2.06-.06,4.18.02,6.34.15.43.43.6.84.49.86.03,1.1-2.14.72-6.52l3.49-.63c.06,2.65-.26,5.38-.96,8.18-.64,1.83-1.85,2.81-3.62,2.92-2.42,0-3.64-1.75-3.64-5.26l-.1-5.96Z" style="fill: #ea493d;"/>
                          <path d="M351.16,336.21c1.77-.25,3.12.41,4.05,1.95l-2.32,1.92c-.49-.46-.98-.66-1.47-.59-1.3.26-1.95,1.12-1.96,2.59.24,1.19.83,1.73,1.76,1.62.42-.06.9-.4,1.45-1l2.68,1.15c-.67,2.12-2.16,3.33-4.47,3.61-1.67.17-3-.7-4.01-2.63-.31-.66-.49-1.29-.53-1.91-.39-2.73.78-4.84,3.49-6.32.29-.18.74-.31,1.34-.39Z" style="fill: #ea493d;"/>
                          <path d="M365.02,336.2l-.37,3.19-4.74.44.15,1.03,3.29-.1-.25,2.16-2.83.23.12,1.22,4.7-.31-.48,3.11c-.02.1-2.52.2-7.5.29l-1.04-10.59,8.95-.67Z" style="fill: #ea493d;"/>
                        </g>
                        <g>
                          <g>
                            <path d="M325.55,332.94c-.08-1.41-.12-2.63-.12-3.68s.02-2.14.07-3.27l-1.46.2-.26-1.38c.78-.14,1.55-.23,2.31-.3l2.23-.12.23,1.32c-.44.02-.93.06-1.48.11-.05,1.15-.07,2.2-.07,3.15s.02,2.32.05,4.1l-1.5-.13Z" style="fill: #ea493d;"/>
                            <path d="M331.54,333.32c-.76,0-1.4-.34-1.92-1.02-.52-.68-.78-1.71-.78-3.1s.28-2.52.85-3.39c.57-.88,1.24-1.31,2.01-1.31s1.41.34,1.93,1.03c.51.68.77,1.71.77,3.09s-.29,2.51-.86,3.39c-.57.88-1.24,1.32-2,1.32ZM330.81,326.84c-.25.62-.38,1.39-.38,2.33s.11,1.63.33,2.08.49.67.82.67.61-.31.86-.93c.25-.62.38-1.4.38-2.33s-.11-1.62-.32-2.07-.47-.67-.78-.67c-.35,0-.65.31-.91.92Z" style="fill: #ea493d;"/>
                            <path d="M335.32,332.99c-.06-2.07-.1-3.63-.1-4.68s.07-2.17.2-3.36l2.24.18c.28,1,.57,2.41.88,4.21.45-1.46.84-3.03,1.18-4.72l2.25.2c.06,2.46.1,4.25.1,5.39s-.04,2.14-.11,3.02l-1.63-.16c.1-1,.19-3.13.26-6.37h-.09c-.08.3-.21.83-.38,1.59-.37,1.57-.72,2.9-1.06,4.01l-1.09-.1c-.19-.76-.41-1.75-.66-2.96-.25-1.21-.44-2.11-.58-2.68h-.1c.07,2.64.16,4.84.25,6.57l-1.57-.14Z" style="fill: #ea493d;"/>
                            <path d="M346.61,332.8l-.27-1.66-1.78.07-.45,2.24-1.67-.14,2.13-8.65,2.21.19,1.56,8.09-1.73-.14ZM345.56,326.22l-.75,3.71,1.34-.05-.58-3.66Z" style="fill: #ea493d;"/>
                            <path d="M349.97,332.94c-.08-1.41-.12-2.63-.12-3.68s.02-2.14.07-3.27l-1.46.2-.26-1.38c.78-.14,1.55-.23,2.31-.3l2.23-.12.23,1.32c-.44.02-.93.06-1.48.11-.05,1.15-.07,2.2-.07,3.15s.02,2.32.05,4.1l-1.5-.13Z" style="fill: #ea493d;"/>
                            <path d="M355.96,333.32c-.76,0-1.4-.34-1.92-1.02-.52-.68-.78-1.71-.78-3.1s.28-2.52.85-3.39c.57-.88,1.24-1.31,2.01-1.31s1.41.34,1.93,1.03c.51.68.77,1.71.77,3.09s-.29,2.51-.86,3.39c-.57.88-1.24,1.32-2,1.32ZM355.23,326.84c-.25.62-.38,1.39-.38,2.33s.11,1.63.33,2.08.49.67.82.67.61-.31.86-.93c.25-.62.38-1.4.38-2.33s-.11-1.62-.32-2.07-.47-.67-.78-.67c-.35,0-.65.31-.91.92Z" style="fill: #ea493d;"/>
                          </g>
                          <path d="M362.89,327.06c-2.03,0-2.04,3.16,0,3.16s2.03-3.16,0-3.16Z" style="fill: #ea493d;"/>
                          <path d="M319.96,327.06c-2.03,0-2.04,3.16,0,3.16s2.04-3.16,0-3.16Z" style="fill: #ea493d;"/>
                        </g>
                      </g>
                      <g>
                        <path d="M335.65,285.87c-.12,1.02-.19,2.07-.19,3.13s.04,2.02.13,2.87l-1.25-.12c-.04-.73-.07-1.44-.07-2.14s.02-1.35.07-1.98l-.52.7-.71-.6c.39-.57.81-1.28,1.24-2.11l1.29.25Z" style="fill: #ea493d;"/>
                        <path d="M337.01,289.34c0-.59.07-1.16.22-1.71.15-.54.37-1.01.68-1.38.31-.38.67-.57,1.08-.57s.77.14,1.06.42c.53.53.79,1.4.79,2.62,0,.53-.09,1.04-.28,1.53-.19.49-.43.88-.72,1.17s-.6.44-.91.44c-.6,0-1.07-.23-1.41-.69-.34-.46-.51-1.07-.51-1.83ZM338.44,287.53c-.14.54-.21,1.09-.21,1.65s.06.97.19,1.25.3.41.52.41c.17,0,.33-.22.47-.65.15-.43.22-.92.22-1.46,0-1.34-.22-2.01-.66-2.01-.22,0-.4.27-.53.81Z" style="fill: #ea493d;"/>
                        <path d="M341.35,289.34c0-.59.07-1.16.22-1.71.15-.54.37-1.01.68-1.38.31-.38.67-.57,1.08-.57s.77.14,1.06.42c.53.53.79,1.4.79,2.62,0,.53-.09,1.04-.28,1.53-.19.49-.43.88-.72,1.17s-.6.44-.91.44c-.6,0-1.07-.23-1.41-.69-.34-.46-.51-1.07-.51-1.83ZM342.78,287.53c-.14.54-.21,1.09-.21,1.65s.06.97.19,1.25.3.41.52.41c.17,0,.33-.22.47-.65.15-.43.22-.92.22-1.46,0-1.34-.22-2.01-.66-2.01-.22,0-.4.27-.53.81Z" style="fill: #ea493d;"/>
                        <path d="M345.84,288.71c-.22-.26-.34-.62-.34-1.08s.12-.9.35-1.32c.23-.41.55-.62.95-.62s.69.16.89.47c.2.31.3.7.3,1.17s-.13.88-.38,1.24-.54.53-.85.53c-.39,0-.69-.13-.92-.38ZM346.96,291.92l-.72-.27c1.56-2.72,2.97-4.78,4.25-6.17l.6.37c-.72.81-1.41,1.7-2.05,2.66-.64.96-1.33,2.1-2.08,3.41ZM346.48,286.89c-.07.24-.11.48-.11.71,0,.42.13.64.39.64.09,0,.18-.09.26-.27s.12-.38.12-.61c0-.56-.12-.83-.36-.83-.12,0-.22.12-.3.37ZM349.3,291.55c-.22-.26-.34-.62-.34-1.08s.12-.9.35-1.32c.23-.42.55-.62.95-.62s.69.16.89.47c.2.31.3.7.3,1.17s-.13.88-.38,1.23c-.26.36-.54.53-.85.53-.39,0-.69-.13-.92-.38ZM349.94,289.74c-.07.24-.11.48-.11.71,0,.42.13.64.39.64.09,0,.18-.09.26-.27s.12-.38.12-.61c0-.55-.12-.83-.36-.83-.12,0-.22.12-.3.37Z" style="fill: #ea493d;"/>
                      </g>
                      <g>
                        <g>
                          <g>
                            <path d="M350.61,301.58c1.73,4.1-.2,8.82-4.3,10.54-3.28,1.38-6.94.44-9.16-2.09-.57-.63-1.04-1.38-1.38-2.2-1.73-4.1.19-8.82,4.28-10.55,3.13-1.32,6.63-.51,8.87,1.77.69.71,1.27,1.55,1.68,2.52Z" style="fill: #ea493d;"/>
                            <path d="M350.61,301.58c1.73,4.1-.2,8.82-4.3,10.54-3.28,1.38-6.94.44-9.16-2.09.34.15.71.25,1.07.33,3.64.78,7.72-.81,9.74-3.94,1.38-2.14,1.7-4.92.96-7.35.69.71,1.27,1.55,1.68,2.52Z" style="fill: #a5150e;"/>
                            <path d="M337.03,301.95c.08-.15.17-.3.31-.4.14-.1.34-.13.48-.03.18.13.17.4.14.62-.15,1.21-.3,2.41-.45,3.62-.04.3-.16.82-.58.76-.34-.05-.4-.52-.45-.79-.16-.81-.14-1.65.05-2.45.11-.46.27-.9.49-1.32Z" style="fill: #fff; opacity: .6;"/>
                          </g>
                          <path d="M340.66,296.09c-1.41-.01-2.83.34-4.07,1.02.7-.12,1.36-.17,2.06-.08-1.87,1.01-3.51,2.43-4.8,4.12,1.58-1.31,3.34-2.31,5.24-3.07-.56.79-.95,1.69-1.26,2.61,1.08-1.18,2.33-2.17,3.72-2.95-.09.67-.07,1.33,0,2.01.43-.77.85-1.51,1.27-2.28.86.7,1.63,1.48,2.22,2.42-.29-.99-.63-1.93-1.12-2.84,1.3.42,2.48,1.03,3.58,1.84-.52-.83-1.18-1.56-1.97-2.12,1.53.45,2.99,1.05,4.38,1.83-1.08-1.92-3.37-3.04-5.56-2.81.97-.52,2.07-.66,3.17-.51-1.8-.47-3.7-.25-5.28.74-.8-.54-1.75-.97-2.68-1.21.47.33.87.78,1.08,1.31Z" style="fill: #7ea02f;"/>
                        </g>
                        <g>
                          <g>
                            <path d="M342.49,311.5c0,4.45-3.61,8.05-8.06,8.05-3.55,0-6.56-2.3-7.63-5.48-.28-.8-.42-1.67-.42-2.56,0-4.45,3.6-8.06,8.05-8.06,3.39,0,6.3,2.11,7.48,5.08.37.92.57,1.92.57,2.97Z" style="fill: #ea493d;"/>
                            <path d="M342.49,311.5c0,4.45-3.61,8.05-8.06,8.05-3.55,0-6.56-2.3-7.63-5.48.26.27.55.51.86.71,3.05,2.13,7.43,2.25,10.51.15,2.11-1.44,3.48-3.88,3.74-6.4.37.92.57,1.92.57,2.97Z" style="fill: #a5150e;"/>
                            <path d="M329.84,306.56c.13-.11.28-.21.44-.25.17-.04.37.02.45.16.11.19,0,.43-.11.62-.61,1.05-1.21,2.1-1.82,3.16-.15.26-.47.69-.83.47-.29-.18-.16-.64-.11-.9.17-.81.52-1.57,1-2.24.28-.38.6-.73.96-1.03Z" style="fill: #fff; opacity: .6;"/>
                          </g>
                          <path d="M335.46,302.57c-1.3-.56-2.74-.78-4.14-.64.69.16,1.32.38,1.93.73-2.11.2-4.18.88-6.02,1.93,1.96-.59,3.98-.83,6.02-.79-.82.51-1.54,1.19-2.18,1.91,1.45-.66,2.99-1.09,4.57-1.28-.34.59-.59,1.2-.78,1.85.69-.54,1.37-1.07,2.06-1.61.52.98.93,2,1.11,3.09.12-1.03.17-2.02.07-3.05,1.03.89,1.88,1.92,2.59,3.08-.16-.96-.48-1.89-.99-2.72,1.24,1.01,2.34,2.13,3.33,3.39-.25-2.19-1.92-4.11-4.03-4.75,1.1-.1,2.17.2,3.12.76-1.47-1.13-3.31-1.67-5.15-1.37-.53-.81-1.24-1.57-2-2.16.3.48.5,1.06.49,1.63Z" style="fill: #7ea02f;"/>
                        </g>
                        <g>
                          <g>
                            <path d="M358.28,311.5c0,4.45-3.61,8.05-8.06,8.05-3.55,0-6.56-2.3-7.63-5.48-.28-.8-.42-1.67-.42-2.56,0-4.45,3.6-8.06,8.05-8.06,3.39,0,6.3,2.11,7.48,5.08.37.92.57,1.92.57,2.97Z" style="fill: #ea493d;"/>
                            <path d="M358.28,311.5c0,4.45-3.61,8.05-8.06,8.05-3.55,0-6.56-2.3-7.63-5.48.26.27.55.51.86.71,3.05,2.13,7.43,2.25,10.51.15,2.11-1.44,3.48-3.88,3.74-6.4.37.92.57,1.92.57,2.97Z" style="fill: #a5150e;"/>
                            <path d="M345.63,306.56c.13-.11.28-.21.44-.25.17-.04.37.02.45.16.11.19,0,.43-.11.62l-1.82,3.16c-.15.26-.47.69-.83.47-.29-.18-.16-.64-.11-.9.17-.81.52-1.57,1-2.24.28-.38.6-.73.96-1.03Z" style="fill: #fff; opacity: .6;"/>
                          </g>
                          <path d="M351.25,302.57c-1.3-.56-2.74-.78-4.14-.64.69.16,1.32.38,1.93.73-2.11.2-4.18.88-6.02,1.93,1.96-.59,3.98-.83,6.02-.79-.82.51-1.54,1.19-2.18,1.91,1.45-.66,2.99-1.09,4.57-1.28-.34.59-.59,1.2-.78,1.85.69-.54,1.37-1.07,2.06-1.61.52.98.93,2,1.11,3.09.12-1.03.17-2.02.07-3.05,1.03.89,1.88,1.92,2.59,3.08-.16-.96-.48-1.89-.99-2.72,1.24,1.01,2.34,2.13,3.33,3.39-.25-2.19-1.92-4.11-4.03-4.75,1.1-.1,2.17.2,3.12.76-1.47-1.13-3.31-1.67-5.15-1.37-.53-.81-1.24-1.57-2-2.16.3.48.5,1.06.49,1.63Z" style="fill: #7ea02f;"/>
                        </g>
                      </g>
                    </g>
                  </g>
                  <path d="M391.62,367.26c-1.92,4.68-5.99,8.03-9.42,11.74-3.43,3.71-6.45,8.57-5.44,13.52-22.71-.68-47.9-.5-70.61-.26-.85-5.67-5.17-9.74-9.34-13.95,3.69,1.87,7.88,2.84,12,3.5,14.61,2.34,29.74,1.42,43.97-2.68,8.41-2.43,17.09-6.46,21.26-14.14,2.86-5.23,3.2-11.51,2.39-17.42-.82-5.9-2.72-11.58-4.16-17.37-2.66-10.72-3.68-22.18-.33-32.71,1.82-5.72,4.85-10.97,7.44-16.38,2.58-5.42,4.76-11.23,4.64-17.23-.02-1.76-.3-3.55-.79-5.24,5.12,5.71,5.13,14.35,3.73,21.91-1.54,8.27-4.39,16.25-6.25,24.45-1.87,8.21-2.7,16.93-.2,24.95,2.01,6.39,5.98,11.95,8.9,17.97s4.76,13.16,2.22,19.35Z" style="fill: #d66; mix-blend-mode: multiply;"/>
                  <g style="opacity: .6;">
                    <path d="M317.82,255.09c-1.33.47-2.72,1.07-3.5,2.26-.96,1.46-.66,3.53.45,4.88,1.11,1.35,2.89,2.03,4.64,2.1,1.75.07,3.47-.41,5.1-1.05,2.03-.8,4.04-1.92,5.27-3.73,1.24-1.84,1.79-6.04-1.16-6.51-3.31-.53-7.72.97-10.81,2.05Z" style="fill: #fff;"/>
                    <path d="M299.32,272.02c-.68,4.81.21,9.69,1.09,14.47.1.56.21,1.13.49,1.63.28.5.77.91,1.33.96.63.05,1.22-.39,1.54-.94s.41-1.2.46-1.83c.3-3.56-.33-7.37,1.33-10.53,1.21-2.3,3.46-3.89,4.86-6.09,1.02-1.6,1.54-3.51,1.49-5.41-.04-1.29-.37-2.63-1.27-3.55-3.8-3.91-9.15,4.26-10.25,7.12-.52,1.34-.88,2.75-1.08,4.17Z" style="fill: #fff;"/>
                  </g>
                </g>
                <g>
                  <path d="M379.84,406.02h-76.47c.74-4.26.84-11.23,0-15.53,25.49.85,50.98,0,76.47-2.54-.89,4.53-.89,12.35,0,18.08Z" style="fill: #f4d956;"/>
                  <g>
                    <path d="M335.46,401.51c-9.24.25-18.48.02-27.69-.68-.68-.05-.67,1,0,1.05,9.21.7,18.46.92,27.69.68.68-.02.68-1.07,0-1.05Z" style="fill: #e58309;"/>
                    <path d="M375.55,401.51c-9.24.25-18.48.02-27.69-.68-.68-.05-.67,1,0,1.05,9.21.7,18.46.92,27.69.68.68-.02.68-1.07,0-1.05Z" style="fill: #e58309;"/>
                    <path d="M347.63,398.82c-3.88.12-7.76.24-11.64.36-.68.02-.68,1.07,0,1.05,3.88-.12,7.76-.24,11.64-.36.68-.02.68-1.07,0-1.05Z" style="fill: #e58309;"/>
                  </g>
                </g>
              </g>
            </g>
            <g>
              <path d="M399.09,404.4c-.03,1.22-.05,2.43-.07,3.65-.13,6.01-.17,12.02-.14,18.04H0v-21.69h399.09Z" style="fill: #ffaf50;"/>
              <g style="mix-blend-mode: multiply;">
                <path d="M11.46,417.56c-3.91.84-7.73,2-11.46,3.42v2.25c17.41-6.77,37.12-7.17,54.87-1.4,3.57,1.16,7.04,2.6,10.4,4.26h4.57c-17.6-9.8-38.71-12.78-58.39-8.53Z" style="fill: #efbc97;"/>
                <path d="M47.65,425.83c-14.15-6.49-30.84-6.35-44.87.26h5.59c10.99-3.88,23.26-3.92,34.27,0h5.36c-.09-.1-.2-.19-.35-.26Z" style="fill: #efbc97;"/>
                <path d="M174.96,423.06c-3.86.77-7.65,1.81-11.39,3.03h7.79c11.45-2.81,23.41-3.5,34.71,0h6.01c-11.47-5.04-24.76-5.5-37.12-3.03Z" style="fill: #efbc97;"/>
                <path d="M205.37,416.84c-20.3-1.13-40.76.49-60.63,4.82-5.72,1.25-11.39,2.72-16.99,4.42h7.79c11.62-3.1,23.49-5.25,35.47-6.41,20.12-1.95,40.53-1.22,60.44,2.29,6.24,1.1,12.43,2.48,18.56,4.12h7.77c-17.02-5.17-34.65-8.26-52.41-9.25Z" style="fill: #efbc97;"/>
                <path d="M85.75,411.98c17.35,1.03,34.81.07,51.94-2.84,7.22-1.22,14.38-2.81,21.45-4.73h-8.79c-11.63,2.7-23.46,4.49-35.38,5.31-17.22,1.18-34.59.43-51.64-2.32-5.08-.82-10.13-1.83-15.14-2.99h-8.67c15.1,4.1,30.61,6.64,46.24,7.57Z" style="fill: #efbc97;"/>
                <path d="M0,416.1c25.56-11.02,53.84-.25,79.86,3.33,27.81,3.82,54.97-3.01,82.26-7.41,14.13-2.28,28.33-3.65,42.64-2.7,14.1.93,28,3.65,41.81,6.55,13.8,2.89,27.58,5.96,41.58,7.75,13.21,1.69,26.56,2.07,39.85,1.13,24.51-1.73,48.69-7.85,71.04-18.06.02-.76.02-1.52.04-2.28h-.22c-20.17,9.31-41.86,15.29-63.97,17.61-13.16,1.38-26.45,1.48-39.62.26-14.17-1.31-28.13-4.24-42.03-7.18-13.76-2.91-27.54-5.84-41.54-7.31-13.88-1.46-27.67-.97-41.48.89-27.68,3.73-55.21,11.86-83.39,9.42-26.92-2.33-54.14-14.12-81.2-6.28-1.92.56-3.79,1.23-5.63,1.99v2.3Z" style="fill: #efbc97;"/>
                <path d="M398.92,414.16c0-.83.03-1.66.04-2.49-10.01,5.77-20.53,10.62-31.43,14.42h6.14c8.7-3.34,17.14-7.33,25.25-11.93Z" style="fill: #efbc97;"/>
                <path d="M354.84,404.53c.13-.04.26-.09.4-.13h-8.07c-14.95,3.53-30.67,3.83-45.75.81-1.21-.24-2.42-.52-3.63-.81h-7.94c20.97,6.64,43.98,6.64,64.99.13Z" style="fill: #efbc97;"/>
                <path d="M307.42,416.23c20,1.59,40.31-.39,59.61-5.91,5.77-1.65,11.44-3.63,16.98-5.91h-5.82c-11.99,4.46-24.51,7.48-37.2,9.02-19.59,2.36-39.6,1.29-58.8-3.31-6.33-1.52-12.56-3.43-18.66-5.7h-5.77c15.81,6.51,32.61,10.47,49.67,11.82Z" style="fill: #efbc97;"/>
              </g>
              <path d="M399.01,408.06c-.13,6.01-.17,12.02-.14,18.04H0v-5.2c51.47-2.1,342.56-11.1,399.01-12.84Z" style="fill: #efbc97; mix-blend-mode: multiply;"/>
            </g>
          </g>
        </g>
        <g>
          <path d="M399.09,180.15l-4.21,3.65,1.3,7.47h-21.86c2.89-1.14,5.44-2.83,7.05-5.47,1.97-3.24,2.12-7.24,2.21-11.02.33-13.18.6-26.36.8-39.54.25-16.31.53-33.35-5.32-48.51-.53-1.38-1.11-2.75-1.75-4.1-2.52-5.31-5.87-10.26-7.69-15.85-1.89-5.83-1.98-12.24-.33-18.15.58-2.05-.76-4.06-2.77-4.39.79-2.92,1.69-5.81,2.74-8.66-11.57-3.38-24.75-3.37-36.45-.45,1.28,2.97,2.39,6.02,3.36,9.11h-1.09c-2.22,0-3.88,2.05-3.4,4.22,1.77,8.21,2.89,16.74-.21,24.42-2.36,5.83-6.95,10.52-9.5,16.28-2.78,6.26-2.95,13.33-3.07,20.18-.38,20.83-.78,41.67-1.16,62.5-.05,2.64-.1,5.29-.15,7.93,0,0,0,.01,0,.01-2.23.22-4.46.42-6.69.62-.89-17.89-1.09-35.94-.62-54.16,0,0,0-.02,0-.02.09-3.7.22-7.41.37-11.12.02-.49.04-.97.06-1.46.15-3.67.33-7.35.54-11.03.02-.39.05-.77.07-1.16.18-3.17.39-6.36.61-9.54.06-.91.12-1.82.19-2.74.17-2.26.36-4.53.54-6.79h4.3l1.61-12.48c-29.02,2.54-57.64,3.91-85.84,4.01v8.47h3.87c1.02,14.01,1.71,28.24,2.09,42.68.43,16.6.45,33.48.1,50.6-.05,2.67-.12,5.35-.2,8.03-1.43,0-2.85.02-4.28,0v7.57h-5.57c4.14-17.96,6.21-36.38,6.1-54.81-.04-6.27-.59-13.2-5.08-17.58-3.12-3.05-7.89-4.56-9.83-8.48-2.27-4.62.53-10,3.01-14.51,3.21-5.81,6.08-12.41,4.73-18.9-1.02-4.86-4.35-9.02-8.45-11.83-.27-.18-.54-.36-.8-.53-.88-.56-1.79-1.05-2.73-1.51.19-.51.34-1.05.46-1.58.69-2.89,1.19-5.83,1.51-8.79.24-2.28.3-4.83-1.17-6.6-1.16-1.39-2.95-1.91-4.8-2.13-.76-.09-1.53-.13-2.27-.16-2.42-.08-4.83-.16-7.25-.23-1.15-7.67-2.3-15.33-3.45-23,0-.09-.03-.18-.04-.28-.44-2.97-.38-7.21-3.21-8.23-5.04-1.81-7.69-1.09-12.53,1.54-4.1,2.24-4.41,8.17-5.49,12.72-.99,4.15-1.98,8.29-2.97,12.44-.36,1.51-.72,3.02-1.08,4.53-2.24.04-4.48.1-6.72.19-2.61.1-5.42.31-7.41,1.99-2.79,2.32-2.94,6.57-2.13,10.11.41,1.76.99,3.47,1.44,5.21.1.36.18.73.27,1.1.17.79.18,1.63.37,2.37-6.19,2.72-12.33,6.8-14.53,13.16-2.33,6.73.46,14.29,4.83,19.92,2.09,2.68,4.55,5.1,6.28,8.03,1.74,2.93,2.68,6.58,1.42,9.75-1.54,3.89-5.78,5.85-8.87,8.66-1.43,1.29-2.63,2.8-3.62,4.44-.12-13.42-1.12-26.84-3.02-40.26-.64-4.53-1.38-9.06-2.22-13.59,1.75-.06,3.5-.1,5.25-.17l-2.54-22.5c-31.08-1.1-62.76.08-94.96,3.31v19.19c1.78.06,3.56.11,5.34.17-7,37.16-7.1,74.31-.31,111.47.32,1.78.67,3.56,1.02,5.34H11.72c0,.07,0,.14,0,.21.01.69.02,1.38.04,2.07,0,0,0,0,0,0,0,.46.02.91.03,1.37,0,.29,0,.59.01.88l-2.1-.92L.22,201.83l11.71,11.12.19.58.23-.58h398.45v-21.69l-11.71-11.12ZM138.79,191.27c1.58-8,2.86-15.99,3.81-23.99.79,5.78,1.8,11.54,3.03,17.24.48,2.26,1.01,4.5,1.56,6.74h-8.4ZM317.11,191.27l.8-6.28c.29,1.46.83,2.83,1.83,3.95,1.03,1.14,2.4,1.84,3.88,2.33h-6.5Z" style="fill: #f9e8e8;"/>
          <g>
            <g>
              <g>
                <g>
                  <g>
                    <path d="M126.53,182.95H42.16c-.56-2.71-1.1-5.43-1.59-8.14-7.19-39.31-6.67-78.62,1.59-117.93h84.37c1.39,6.68,2.54,13.36,3.48,20.04,4.99,35.34,3.82,70.68-3.48,106.02Z" style="fill: #abc6db;"/>
                    <g>
                      <path d="M127.17,113.3c-.23,16.45-1.13,32.89-2.67,49.27-.27,3.04-.59,6.09-.92,9.13-.26,2.29-.59,4.78-2.06,6.46-1.92,2.19-5.05,2.32-7.84,2.31-18.56-.16-37.12-.3-55.67-.46-2.64-.01-6.44.65-8.59-1.46-1.76-1.72-2.45-5.05-2.99-7.89-.17-.89-.32-1.75-.49-2.5-2.09-9.21-3.36-18.62-4.14-28.05-.87-10.59-1.3-21.3-1.3-31.93-.04-3.3,0-6.93,1.9-9.52,2.77-3.75,7.95-3.65,12.38-3.48,11.14.4,22.28-.94,33.44-.91,11.14.03,22.58,1.54,32.43,7.22,2.38,1.39,4.78,3.15,5.83,5.83.72,1.86.72,3.95.69,5.99Z" style="fill: #ea493d;"/>
                      <path d="M124.5,162.57c-.27,3.04-.59,6.09-.92,9.13-.26,2.29-.59,4.78-2.06,6.46-1.92,2.19-5.05,2.32-7.84,2.31-18.56-.16-37.12-.3-55.67-.46-2.64-.01-6.44.65-8.59-1.46-1.76-1.72-2.45-5.05-2.99-7.89,1.7-.19,3.45-.92,4.92-1.85,2.61-1.65,4.96-3.87,7.95-4.69,7.6-2.12,15.07,5.57,22.89,4.44,4.7-.66,8.85-4.47,13.55-3.9,2.24.29,4.21,1.53,6.26,2.5,2.03.97,4.44,1.65,6.51.76,3.68-1.57,4.92-7.4,8.9-7.5,1.66-.04,3.1,1.01,4.63,1.67.75.33,1.65.52,2.45.46Z" style="fill: #a5150e;"/>
                    </g>
                    <g>
                      <g>
                        <path d="M112.05,115.89c0,18.33-13.21,35.82-27.49,35.82s-25.69-11.04-25.69-29.37,11.41-37.01,25.69-37.01,27.49,12.22,27.49,30.55Z" style="fill: #dbc560;"/>
                        <path d="M84.7,147.28c-13.17,0-22.38-10.49-22.38-25.51s9.57-32,22.38-32c11.75,0,23.91,9.92,23.91,26.51s-11.62,30.99-23.91,30.99ZM84.7,90.83c-12.2,0-21.32,16.33-21.32,30.94s8.77,24.45,21.32,24.45c11.74,0,22.85-14.55,22.85-29.93s-11.62-25.45-22.85-25.45Z" style="fill: #fef5cc;"/>
                      </g>
                      <g>
                        <g>
                          <path d="M98.75,118.76c0,8.01-6.5,14.5-14.51,14.5-6.4,0-11.83-4.13-13.74-9.88-.5-1.45-.76-3.01-.76-4.62,0-8.01,6.48-14.51,14.5-14.51,6.11,0,11.36,3.8,13.48,9.15.66,1.66,1.03,3.46,1.03,5.36Z" style="fill: #ea493d;"/>
                          <path d="M98.75,118.76c0,8.01-6.5,14.5-14.51,14.5-6.4,0-11.83-4.13-13.74-9.88.47.48,1,.92,1.54,1.29,5.5,3.85,13.39,4.05,18.94.27,3.8-2.59,6.27-6.98,6.74-11.54.66,1.66,1.03,3.46,1.03,5.36Z" style="fill: #a5150e;"/>
                          <path d="M75.97,109.86c.24-.2.5-.39.8-.45.3-.07.66.03.82.29.2.34,0,.78-.2,1.12-1.09,1.9-2.19,3.79-3.28,5.69-.27.47-.84,1.25-1.49.85-.52-.32-.29-1.15-.19-1.62.31-1.45.93-2.84,1.8-4.03.5-.68,1.08-1.31,1.74-1.85Z" style="fill: #fff; opacity: .6;"/>
                        </g>
                        <path d="M86.09,102.67c-2.33-1.01-4.93-1.41-7.46-1.15,1.24.29,2.38.68,3.48,1.32-3.81.36-7.53,1.58-10.85,3.48,3.53-1.06,7.16-1.49,10.85-1.43-1.48.92-2.77,2.14-3.92,3.45,2.62-1.2,5.38-1.97,8.24-2.3-.62,1.06-1.06,2.16-1.41,3.33,1.25-.97,2.46-1.92,3.71-2.9.93,1.77,1.67,3.6,2,5.57.22-1.85.31-3.64.13-5.5,1.86,1.6,3.39,3.45,4.66,5.56-.29-1.74-.86-3.4-1.79-4.91,2.23,1.82,4.22,3.84,6,6.11-.46-3.94-3.46-7.4-7.26-8.56,1.98-.18,3.9.36,5.62,1.36-2.65-2.04-5.97-3.01-9.27-2.47-.95-1.46-2.23-2.83-3.61-3.9.55.87.9,1.91.88,2.93Z" style="fill: #7ea02f;"/>
                      </g>
                    </g>
                  </g>
                  <g style="opacity: .6;">
                    <path d="M44.75,74.76c-.34,1.32-.47,2.78.14,4,.86,1.72,3.1,2.49,4.94,1.94,1.84-.55,3.21-2.22,3.72-4.08.41-1.52.29-3.22-.48-4.59-2.86-5.12-7.25-1.35-8.31,2.73Z" style="fill: #fff;"/>
                    <path d="M43.08,130.96c.03,1.04.08,2.13.58,3.05.5.92,1.61,1.59,2.6,1.25,1.23-.43,1.53-2.01,1.6-3.32.61-10.89,0-21.95,2.49-32.56.44-1.86.97-3.72,1.07-5.63.14-2.77-1.14-6.99-4.56-7.1-3.24-.11-3.26,3.89-3.39,6.19-.45,8.12-.64,16.25-.62,24.38.01,4.58.09,9.16.23,13.73Z" style="fill: #fff;"/>
                  </g>
                  <path d="M126.53,182.95H42.16c-.56-2.71-1.1-5.43-1.59-8.14,22.38-.88,44.69-9.7,60-26,10.03-10.68,16.77-24.1,21.36-38.01,3.65-11.02,6-22.42,8.08-33.87,4.99,35.34,3.82,70.68-3.48,106.02Z" style="fill: #ccf3ff; mix-blend-mode: multiply;"/>
                </g>
                <g>
                  <path d="M133.04,63.17c-32.5,1.18-65,1.18-97.5,0v-19.19c32.21-3.23,63.88-4.41,94.97-3.31l2.54,22.5Z" style="fill: #ea493d;"/>
                  <g>
                    <path d="M42.98,48.83l-.09,9.26c0,.92,1.43.93,1.44,0l.09-9.26c0-.92-1.43-.93-1.44,0Z" style="fill: #a5150e;"/>
                    <path d="M52.78,47.29c-.04,3.75-.08,7.5-.12,11.25,0,.92,1.43.93,1.44,0,.04-3.75.08-7.5.12-11.25,0-.92-1.43-.93-1.44,0Z" style="fill: #a5150e;"/>
                    <path d="M65.71,45.97c-.04-.92-1.48-.93-1.44,0,.22,4.56.44,9.12.66,13.68.04.92,1.48.93,1.44,0-.22-4.56-.44-9.12-.66-13.68Z" style="fill: #a5150e;"/>
                    <path d="M76.52,46.18v13.46c0,.92,1.44.93,1.44,0v-13.46c0-.92-1.44-.93-1.44,0Z" style="fill: #a5150e;"/>
                    <path d="M90.13,44.86c-.05-.92-1.49-.92-1.44,0,.29,4.85.57,9.71.86,14.56.05.92,1.49.92,1.44,0-.29-4.85-.57-9.71-.86-14.56Z" style="fill: #a5150e;"/>
                    <path d="M101.17,45.08c-.05-.92-1.48-.93-1.44,0,.24,4.78.48,9.56.72,14.35.05.92,1.48.93,1.44,0-.24-4.78-.48-9.56-.72-14.35Z" style="fill: #a5150e;"/>
                    <path d="M112.76,44.86c-.01-.92-1.45-.93-1.44,0,.06,4.49.13,8.97.19,13.46.01.92,1.45.93,1.44,0-.06-4.49-.13-8.97-.19-13.46Z" style="fill: #a5150e;"/>
                    <path d="M123.13,44.86c-.01-.92-1.45-.93-1.44,0,.05,4.41.1,8.82.14,13.24.01.92,1.45.93,1.44,0-.05-4.41-.1-8.82-.14-13.24Z" style="fill: #a5150e;"/>
                  </g>
                </g>
              </g>
              <g>
                <g>
                  <g>
                    <g>
                      <path d="M190.87,35.15c-9.7.99-19.92.22-29.56-1.22.49-2.07.99-4.15,1.48-6.22.99-4.15,1.98-8.29,2.97-12.44,1.08-4.55,1.39-10.48,5.49-12.72,4.84-2.63,7.5-3.36,12.53-1.54,2.83,1.02,2.76,5.26,3.21,8.23,0,.09.03.18.04.28,1.28,8.55,2.56,17.09,3.85,25.64Z" style="fill: #f4d956;"/>
                      <g>
                        <path d="M176.51,3.67l-.4,22.47c-.01.59.91.59.92,0l.4-22.47c.01-.59-.91-.59-.92,0Z" style="fill: #e58309;"/>
                        <path d="M182.22,3.83c-.05-.58-.97-.59-.92,0,.68,7.39,1.35,14.79,2.03,22.18.05.58.97.59.92,0-.68-7.39-1.35-14.79-2.03-22.18Z" style="fill: #e58309;"/>
                        <path d="M172.16,4.24l-3.39,21.5c-.09.58.79.83.89.24,1.13-7.17,2.26-14.33,3.39-21.5.09-.58-.79-.83-.89-.24Z" style="fill: #e58309;"/>
                      </g>
                    </g>
                    <path d="M190.87,35.15c-9.7.99-19.92.22-29.56-1.22.49-2.07.99-4.15,1.48-6.22,3.11,1.44,6.5,2.35,9.92,2.19,3.66-.16,7.33-1.62,9.76-4.36,2.53-2.85,3.49-6.76,3.97-10.54.23-1.82.37-3.67.58-5.49,1.28,8.55,2.56,17.09,3.85,25.64Z" style="fill: #f4c756; mix-blend-mode: multiply;"/>
                  </g>
                  <g>
                    <path d="M205.96,41.62c-.31,2.96-.81,5.9-1.51,8.79-.3,1.26-.67,2.59-1.68,3.39-1.03.81-2.44.89-3.75.92-8.52.2-17.06.33-25.6.39-4.26.03-8.53.04-12.79.03-2.22,0-4.44,0-6.65-.03-1.41,0-3.95.48-5.24-.2-1.52-.8-1.27-2.51-1.59-4.06-.08-.37-.17-.74-.27-1.1-.45-1.75-1.04-3.46-1.44-5.21-.81-3.54-.67-7.79,2.13-10.11,2-1.67,4.81-1.89,7.41-1.99,14.24-.55,28.49-.18,42.73.31.74.03,1.52.06,2.27.16,1.85.21,3.64.74,4.8,2.13,1.47,1.77,1.41,4.32,1.17,6.6Z" style="fill: #f4d956;"/>
                    <path d="M205.96,41.62c-.31,2.96-.81,5.9-1.51,8.79-.3,1.26-.67,2.59-1.68,3.39-1.03.81-2.44.89-3.75.92-8.52.2-17.06.33-25.6.39-4.26.03-8.53.04-12.79.03-2.22,0-4.44,0-6.65-.03-1.41,0-3.95.48-5.24-.2-1.52-.8-1.27-2.51-1.59-4.06-.08-.37-.17-.74-.27-1.1,11.77-5.59,25.21-7.63,38.1-5.71,3.56.53,7.2,1.34,10.73.6,3.52-.75,6.93-3.64,6.83-7.25-.06-1.79-1.08-3.48-2.56-4.49,1.85.21,3.64.74,4.8,2.13,1.47,1.77,1.41,4.32,1.17,6.6Z" style="fill: #f4c756; mix-blend-mode: multiply;"/>
                  </g>
                </g>
                <g>
                  <g>
                    <path d="M223.14,125.33c.11,19.53-2.19,39.06-6.84,58.03-26.44-.25-53.68-.15-80.12-.39-.82-3.17-1.58-6.37-2.26-9.58-2.27-10.56-3.81-21.27-4.58-32.04-.37-5.09-.56-10.25.39-15.27.95-5.01,3.15-9.93,6.93-13.35,3.1-2.81,7.33-4.77,8.87-8.66,1.26-3.17.31-6.82-1.42-9.75-1.73-2.93-4.19-5.35-6.28-8.03-4.37-5.63-7.16-13.19-4.83-19.92,2.26-6.55,8.71-10.69,15.09-13.4,14.29-6.11,30.49-7.65,45.67-4.36,4.54.99,9.05,2.41,12.97,4.89.27.17.54.34.8.53,4.1,2.81,7.43,6.97,8.45,11.83,1.35,6.5-1.53,13.09-4.73,18.9-2.49,4.51-5.29,9.89-3.01,14.51,1.93,3.92,6.7,5.43,9.83,8.48,4.49,4.38,5.05,11.31,5.08,17.58Z" style="fill: #f4d956;"/>
                    <g>
                      <g>
                        <path d="M195.23,101.82c-1.22,7.57,3.77,15.32,6.31,22.56,2.54,7.23,5.62,14.38,6.58,21.99.95,7.61-.58,15.99-6.07,21.34-4.64,4.51-11.32,6.18-17.74,7.07-6.55.91-13.32,1.2-19.71-.52-6.39-1.72-12.41-5.66-15.47-11.52-2.66-5.1-2.88-11.12-2.51-16.86.53-8.22,2.14-16.36,4.77-24.16,1.93-5.7,4.42-11.29,5.14-17.26.24-1.97-.55-3.9-1.68-5.53-1.14-1.63-2.72-2.91-3.88-4.52-3.42-4.78-2.3-11.8,1.47-16.31s9.61-6.82,15.41-7.76c6.38-1.04,13-.61,19.19,1.25,4.83,1.44,9.73,4.07,11.85,8.65,2.77,5.98-2.61,15.09-3.66,21.6Z" style="fill: #fef5cc;"/>
                        <path d="M175.3,171.76c-3.16,0-5.96-.4-8.56-1.19-5.94-1.81-10.73-5.88-13.15-11.16-2.39-5.21-2.39-11.29-2.12-16.01.43-7.65,1.74-15.21,3.9-22.47.38-1.27.78-2.53,1.19-3.79,1.23-3.85,2.51-7.84,2.94-11.91.18-1.73-.56-3.37-1.22-4.44-.43-.7-.96-1.34-1.51-2.01-.55-.67-1.12-1.36-1.62-2.14-2.8-4.46-2.27-11.41,1.23-16.17,3.61-4.9,9.12-6.81,13.11-7.55,5.33-.98,10.88-.57,16.05,1.18,5.11,1.74,8.64,4.69,10.21,8.54,1.65,4.04.14,9.15-1.32,14.1-.67,2.28-1.31,4.43-1.58,6.32h0c-.69,4.85,1.24,9.93,3.12,14.85.69,1.8,1.4,3.66,1.95,5.47.41,1.32.84,2.64,1.26,3.96,1.71,5.29,3.47,10.76,4.1,16.47.92,8.34-.97,15.79-5.18,20.45-4.18,4.62-10.19,6.08-14.95,6.84-2.86.45-5.45.68-7.85.68ZM175.22,74.43c-1.8,0-3.59.16-5.36.49-3.62.67-8.62,2.38-11.83,6.74-3.03,4.12-3.52,10.08-1.15,13.85.42.67.93,1.28,1.46,1.93.58.7,1.18,1.42,1.68,2.25,1.18,1.93,1.7,3.91,1.51,5.74-.45,4.28-1.76,8.37-3.02,12.32-.4,1.25-.8,2.5-1.17,3.75-2.11,7.11-3.4,14.51-3.82,22-.25,4.48-.26,10.23,1.94,15.03,2.17,4.75,6.5,8.41,11.88,10.05,4.26,1.3,9.18,1.44,15.49.44,4.43-.7,10-2.04,13.75-6.19,3.76-4.15,5.5-11.2,4.66-18.84-.61-5.5-2.34-10.87-4.01-16.06-.43-1.33-.86-2.66-1.27-3.99-.54-1.74-1.2-3.49-1.91-5.34-1.96-5.16-4-10.49-3.23-15.87.29-2.04.95-4.26,1.64-6.61,1.36-4.6,2.76-9.36,1.39-12.74-1.69-4.15-5.81-6.3-8.97-7.37-3.12-1.06-6.39-1.6-9.65-1.6Z" style="fill: #f4d956;"/>
                      </g>
                      <g>
                        <g>
                          <path d="M158.01,143.83h1.23l.81,1.51.68-1.51h1.3l1.77,5.16-2.11,1.38-.99-2.8-.61.88-.65-.81-.73,2.87-2.14-1.15,1.44-5.53Z" style="fill: #e58309;"/>
                          <path d="M164.22,143.83l1.93.27c-.04,1.23-.04,2.49.01,3.77.09.26.26.36.5.29.51.02.66-1.28.43-3.88l2.08-.38c.04,1.58-.15,3.2-.57,4.87-.38,1.09-1.1,1.67-2.16,1.74-1.44,0-2.17-1.04-2.17-3.13l-.06-3.55Z" style="fill: #e58309;"/>
                          <path d="M174.56,144.72l-.81,1.48c-1.52-.67-2.27-.76-2.24-.28.09.21.41.39.95.53,1.61.66,2.39,1.45,2.35,2.37.01.58-.34,1.07-1.07,1.44-.29.15-.76.25-1.39.29-.73.02-1.57-.24-2.5-.79l.64-1.43c1.42.58,2.13.66,2.12.25-.05-.2-.66-.53-1.83-1-.75-.41-1.12-1-1.11-1.75-.07-.77.39-1.4,1.38-1.89,1.18-.31,2.35-.05,3.51.77Z" style="fill: #e58309;"/>
                          <path d="M179.98,143.8c.14.74.25,1.4.34,1.98-.59-.02-1.12-.04-1.61-.04.05,1.84.05,3.42,0,4.76h-1.73c-.1-.8-.14-2.15-.11-4.05v-.7c-.56,0-1.13.02-1.72.07.08-.82.18-1.49.3-1.99,1.27-.02,2.78-.04,4.54-.04Z" style="fill: #e58309;"/>
                          <path d="M182.58,143.83h1.9l1.95,5.57-1.94,1.13-.27-.92h-1.5l-.36.89-1.82-.91,2.04-5.76ZM183.07,148.37l1.05-.04-.36-1.19h-.29l-.41,1.22Z" style="fill: #e58309;"/>
                          <path d="M190.01,143.87c.91.06,1.63.5,2.15,1.32.09.22.13.47.12.75-.03.57-.41,1.1-1.13,1.61.13.12.64.75,1.54,1.91l-1.57,1.05-1.52-2.18.09,1.91-2.04.28-.97-6.27c.38-.13,1.33-.26,2.85-.39l.49.02ZM189.33,145.73l.07.71c.73-.06,1.1-.21,1.12-.45,0-.15-.09-.25-.29-.28-.24-.02-.54-.02-.9.03Z" style="fill: #e58309;"/>
                          <path d="M196.73,143.96c1.37.45,2.13,1.26,2.27,2.41.03.35,0,.72-.1,1.1-.23,1.04-1.01,1.94-2.35,2.71-.88.34-1.73.5-2.55.48l-.95-6.41c1.17-.45,2.4-.55,3.69-.29ZM195.54,145.61l.32,2.95c.71-.3,1.15-.84,1.32-1.6.08-.5-.09-.9-.51-1.19-.4-.2-.78-.25-1.12-.16Z" style="fill: #e58309;"/>
                        </g>
                        <g>
                          <path d="M164.36,140.29v-.65c-.73-1.55-1.14-2.67-1.22-3.35l1.05.1c.12.63.38,1.38.77,2.25.46-1.01.83-1.93,1.08-2.75l.97.09c-.41,1.18-.91,2.38-1.49,3.6-.01.5-.02.95-.02,1.33s.01.76.03,1.15l-1.11-.12c-.05-.52-.08-1.07-.08-1.66Z" style="fill: #e58309;"/>
                          <path d="M168.21,141.92c-.02-.88-.03-1.72-.03-2.51s.04-1.82.13-3.08c.96-.15,1.89-.22,2.8-.22v1.03c-.63,0-1.22.02-1.76.06-.02.63-.04,1.11-.04,1.44.43-.06.93-.1,1.51-.11l.16.92c-.38,0-.94.05-1.69.13,0,.67,0,1.16,0,1.45.49-.04,1.07-.12,1.75-.25l.14.92c-.48.22-1.04.33-1.69.33l-1.29-.12Z" style="fill: #e58309;"/>
                          <path d="M172.88,141.84c-.07-1.15-.11-2.21-.11-3.17s.03-1.83.09-2.62l1.12.1c-.08.96-.13,1.88-.13,2.76s.01,1.53.04,1.94c.2-.03.7-.08,1.49-.17l.17.97c-.42.05-1.01.13-1.78.25l-.89-.08Z" style="fill: #e58309;"/>
                          <path d="M176.98,141.84c-.07-1.15-.11-2.21-.11-3.17s.03-1.83.09-2.62l1.12.1c-.08.96-.13,1.88-.13,2.76s.01,1.53.04,1.94c.2-.03.7-.08,1.49-.17l.17.97c-.42.05-1.01.13-1.78.25l-.89-.08Z" style="fill: #e58309;"/>
                          <path d="M182.55,142.18c-.53,0-.99-.24-1.35-.72-.37-.48-.55-1.21-.55-2.18s.2-1.77.6-2.39.87-.92,1.42-.92,1,.24,1.36.72.54,1.21.54,2.17-.2,1.76-.61,2.39c-.4.62-.87.93-1.41.93ZM182.04,137.61c-.18.43-.27.98-.27,1.64s.08,1.15.23,1.46c.15.32.34.47.58.47s.43-.22.61-.65.26-.98.26-1.64-.07-1.14-.22-1.46-.33-.47-.55-.47c-.25,0-.46.22-.64.65Z" style="fill: #e58309;"/>
                          <path d="M188.09,136.63l.84.08c.04.45.1,1.04.18,1.78.08.74.14,1.26.17,1.57h.04c.4-1.72.66-3.06.77-4.03l1.1.09c-.31,1.85-.77,3.76-1.38,5.71l-.81-.07c-.19-.66-.4-1.53-.64-2.59-.24,1.15-.47,2.07-.69,2.76l-.81-.07c-.48-2.37-.8-4.3-.97-5.78l1.08.09c.09.95.23,2.24.42,3.88h.04c.33-1.5.54-2.64.63-3.42Z" style="fill: #e58309;"/>
                        </g>
                      </g>
                      <path d="M188.55,98.35c-4.66.85-8.72,3.06-11.73,7.15.19-1.42.42-2.84.68-4.25,5.16-.75,9.02-3.74,11.51-7.9-4.42.81-8.3,2.82-11.24,6.54.11-.56.22-1.12.34-1.68,2.99-3.34,4.67-8.31,3.92-12.64-3.76,2.84-5.78,7.78-5.18,12.45-.3,1.35-.56,2.71-.8,4.07-.41-5.46-3.35-9.61-7.56-12.34.73,4.98,3,9.35,7.52,12.54-.23,1.37-.43,2.75-.59,4.13-1.45-4.5-4.67-7.68-8.75-9.59,1.35,4.63,4.03,8.5,8.58,11.06-.16,1.59-.28,3.18-.35,4.78-1.97-4.05-5.08-7.26-9.77-9.09,1.58,5.13,5.21,8.47,9.73,10.24-.06,1.83-.07,3.67-.01,5.5.03.82,1.3.84,1.27.02-.08-2.37-.06-4.74.06-7.1,5.47-.61,9.54-3.71,12.13-8.04-4.86.89-9.07,3.24-12.11,7.67.1-1.85.27-3.69.5-5.53,5.32-.7,9.28-3.74,11.83-7.99Z" style="fill: #e58309;"/>
                    </g>
                  </g>
                  <g style="opacity: .6;">
                    <path d="M138.65,72.79c.19-3.51,1.87-6.83,4.23-9.43,2.36-2.6,5.38-4.53,8.54-6.08,3.26-1.6,6.72-2.81,10.26-3.62,2.39-.54,5.24-.77,6.97.97,1.88,1.89,1.31,5.26-.5,7.23-1.8,1.97-4.45,2.88-6.99,3.72-3.66,1.21-7.32,2.43-10.98,3.64-1.74.58-3.53,1.18-4.95,2.34-1.42,1.16-2.42,3.02-2.05,4.81.17.83.62,1.57.93,2.36.37.94.64,2.75-.63,3.2-1.13.4-2.08-1-2.66-1.78-1.56-2.1-2.31-4.75-2.17-7.35Z" style="fill: #fff;"/>
                    <path d="M174.86,56.76c.7-1.58,2.2-2.7,3.83-3.25,1.63-.55,3.39-.6,5.11-.49,1.48.09,3.08.35,4.09,1.43,1.39,1.48,1.05,4.02-.32,5.53-1.36,1.5-3.45,2.14-5.46,2.36-3.58.39-9.58-.29-7.25-5.57Z" style="fill: #fff;"/>
                  </g>
                  <path d="M223.14,125.33c.11,19.53-2.19,39.06-6.84,58.03-26.44-.25-53.68-.15-80.12-.39-.82-3.17-1.58-6.37-2.26-9.58,5.08,3.02,11.55,3.62,17.59,3.97,13.64.79,28.36.86,39.64-6.85,6.09-4.16,10.63-10.28,13.94-16.87,3.31-6.58,5.48-13.67,7.64-20.72,2.27-7.42,4.4-16.05.08-22.5-2.85-4.25-8.13-6.83-9.73-11.68-1.04-3.11-.29-6.54,1.03-9.55,1.32-2.99,3.19-5.72,4.55-8.71,3.9-8.55,3.03-19.03-1.92-26.99.27.17.54.34.8.53,4.1,2.81,7.43,6.97,8.45,11.83,1.35,6.5-1.53,13.09-4.73,18.9-2.49,4.51-5.29,9.89-3.01,14.51,1.93,3.92,6.7,5.43,9.83,8.48,4.49,4.38,5.05,11.31,5.08,17.58Z" style="fill: #f4c756; mix-blend-mode: multiply;"/>
                </g>
              </g>
              <g>
                <g>
                  <g>
                    <g>
                      <path d="M298.56,115.12c-.52,20.09-.23,39.99.91,59.69h-72.64c.09-3.43.18-6.86.25-10.27.35-17.12.33-34-.1-50.6-.4-15.27-1.14-30.32-2.25-45.11l76.58-2.06c-.56,6.45-1.05,12.89-1.45,19.31-.61,9.73-1.05,19.4-1.29,29.04Z" style="fill: #fff7d4;"/>
                      <path d="M301.3,66.77c-1.41,16.23-2.33,32.35-2.74,48.35-22.66,9.34-49.24,8.89-71.58-1.18-.4-15.27-1.14-30.32-2.25-45.11l76.58-2.06Z" style="fill: #ea493d;"/>
                    </g>
                    <g>
                      <path d="M240.8,147.44c-.03-.98-.05-2.15-.05-3.52s.04-3.2.13-5.49c.73-.27,1.47-.4,2.24-.4s1.45.28,2.05.85c.6.57.9,1.28.9,2.14s-.33,1.6-.98,2.23c-.65.63-1.51,1.09-2.56,1.38,0,.97.01,1.96.04,2.98l-1.76-.17ZM243.81,142.34c.32-.37.47-.79.47-1.24s-.12-.83-.36-1.12c-.24-.29-.5-.43-.8-.43-.08,0-.25.02-.53.06-.04,1.22-.07,2.4-.08,3.54.54-.17.97-.44,1.29-.82Z" style="fill: #ea493d;"/>
                      <path d="M246.73,147.34c.11-2.07.17-3.92.17-5.55s0-2.69-.01-3.2c.95-.45,1.94-.67,2.97-.67.76,0,1.4.24,1.91.73.51.48.77,1.17.77,2.05,0,1.02-.72,2-2.17,2.94.79.99,1.59,2.07,2.41,3.25l-1.25.92c-.54-.82-1.52-2.16-2.93-4.02-.03,1.33-.06,2.58-.12,3.75l-1.76-.19ZM250.29,141.79c.45-.45.67-.85.67-1.21s-.11-.64-.32-.84-.49-.3-.84-.3-.73.07-1.14.22c0,1.46,0,2.55-.01,3.25.64-.3,1.18-.68,1.63-1.12Z" style="fill: #ea493d;"/>
                      <path d="M253.71,147.28c-.04-1.37-.05-2.66-.05-3.88s.07-2.81.21-4.76c1.48-.22,2.92-.34,4.33-.34v1.59c-.98,0-1.88.03-2.72.09-.03.97-.06,1.71-.06,2.23.66-.09,1.43-.15,2.33-.17l.25,1.43c-.58,0-1.45.07-2.61.19,0,1.04,0,1.79.01,2.24.75-.06,1.65-.19,2.7-.39l.22,1.43c-.73.34-1.6.51-2.61.51l-2-.18Z" style="fill: #ea493d;"/>
                      <path d="M259.26,147.3c-.07-2.25-.1-3.94-.1-5.08s.07-2.36.22-3.66l2.44.19c.3,1.09.62,2.61.96,4.58.48-1.58.91-3.29,1.28-5.13l2.45.22c.07,2.67.1,4.62.1,5.85s-.04,2.33-.12,3.29l-1.78-.17c.11-1.09.21-3.4.29-6.92h-.1c-.09.32-.22.9-.42,1.72-.4,1.7-.78,3.16-1.15,4.36l-1.18-.1c-.21-.83-.45-1.9-.72-3.22-.27-1.32-.48-2.29-.63-2.91h-.1c.08,2.87.17,5.26.27,7.14l-1.71-.16Z" style="fill: #ea493d;"/>
                      <path d="M269.98,138.25c-.08,1.37-.12,2.9-.12,4.62s.06,3.27.17,4.68l-1.75-.16c-.11-1.76-.17-3.36-.17-4.78s.04-2.93.12-4.52l1.75.16Z" style="fill: #ea493d;"/>
                      <path d="M273.18,144.18c0,.45.1.85.3,1.21.2.35.43.53.71.53s.49-.12.65-.36c.16-.24.28-.56.35-.96.12-.7.18-1.51.18-2.43s-.06-2.27-.17-4.05l1.76.18c.12,1.78.18,2.99.18,3.63s0,1.09-.03,1.34-.05.55-.1.89c-.05.34-.12.65-.21.95-.09.29-.2.59-.35.88-.15.29-.32.54-.52.75-.44.48-1.04.71-1.8.71s-1.4-.34-1.94-1.01-.8-1.43-.8-2.26c0-1.82.1-3.77.3-5.83l1.76.17c-.19,1.89-.29,3.78-.29,5.67Z" style="fill: #ea493d;"/>
                      <path d="M278.42,147.3c-.07-2.25-.1-3.94-.1-5.08s.07-2.36.22-3.66l2.44.19c.3,1.09.62,2.61.96,4.58.48-1.58.91-3.29,1.28-5.13l2.45.22c.07,2.67.1,4.62.1,5.85s-.04,2.33-.12,3.29l-1.78-.17c.11-1.09.21-3.4.29-6.92h-.1c-.09.32-.22.9-.42,1.72-.4,1.7-.78,3.16-1.15,4.36l-1.18-.1c-.21-.83-.45-1.9-.72-3.22-.27-1.32-.48-2.29-.63-2.91h-.1c.08,2.87.17,5.26.27,7.14l-1.71-.16Z" style="fill: #ea493d;"/>
                    </g>
                    <g>
                      <path d="M251.26,162.1c.05-.17.07-.32.07-.43s-.03-.21-.1-.29-.15-.11-.25-.11-.18.05-.25.15c-.07.1-.1.21-.1.34,0,.25.14.46.42.64.28.18.48.32.58.4.1.08.17.16.22.22.11.17.16.35.16.54,0,.32-.11.57-.32.76-.21.19-.45.28-.72.28-.32,0-.58-.13-.8-.4-.16-.19-.3-.44-.43-.73l.51-.25c.08.21.18.39.3.54s.25.22.39.22c.09,0,.17-.03.24-.08.07-.06.11-.14.11-.26s-.04-.22-.13-.32c-.09-.1-.21-.2-.35-.3-.15-.1-.26-.19-.34-.25-.08-.07-.17-.15-.27-.25-.19-.2-.28-.45-.28-.76s.11-.57.32-.78c.21-.21.47-.31.77-.31s.55.11.75.34.3.46.3.71-.05.45-.14.62l-.66-.22Z" style="fill: #e58309;"/>
                      <path d="M253.52,160.75c-.03.56-.05,1.19-.05,1.88s.02,1.34.07,1.91l-.71-.06c-.05-.72-.07-1.37-.07-1.95s.02-1.2.05-1.85l.71.06Z" style="fill: #e58309;"/>
                      <path d="M256.57,160.69v2.46c0,.41,0,.84-.04,1.31l-.59-.06c-.46-1.03-.83-1.81-1.12-2.32,0,.52,0,1.36,0,2.5l-.62-.07c-.01-.22-.02-.43-.02-.64,0-.85.05-1.85.14-2.99l.7.07c.35.96.66,1.7.94,2.2-.02-1.07-.05-1.91-.07-2.52l.66.06Z" style="fill: #e58309;"/>
                      <path d="M258.33,161.37c-.16,0-.29.19-.41.57-.12.38-.17.72-.17,1.02,0,.62.16.93.49.93.09,0,.17-.04.24-.12.07-.08.12-.16.15-.25.03-.08.07-.2.11-.35l.67.05c-.09.43-.23.77-.41,1-.18.23-.44.34-.76.34-.38,0-.67-.14-.88-.43-.21-.29-.31-.65-.31-1.1,0-.52.1-1.02.31-1.51.1-.24.24-.44.42-.6.18-.16.38-.24.61-.24.28,0,.49.09.61.28.06.09.12.19.16.28.04.1.07.22.09.37.03.24.05.49.06.76l-.68-.06c0-.46-.04-.74-.13-.86-.04-.06-.09-.09-.15-.09Z" style="fill: #e58309;"/>
                      <path d="M259.96,164.43c-.01-.56-.02-1.09-.02-1.58s.03-1.15.08-1.94c.6-.09,1.19-.14,1.77-.14v.65c-.4,0-.77.01-1.11.04-.01.4-.02.7-.03.91.27-.04.59-.06.95-.07l.1.58c-.24,0-.59.03-1.06.08,0,.42,0,.73,0,.92.31-.02.67-.08,1.1-.16l.09.58c-.3.14-.65.21-1.06.21l-.82-.07Z" style="fill: #e58309;"/>
                      <path d="M265.36,161.11c-.07.58-.11,1.17-.11,1.77s.02,1.14.07,1.62l-.71-.07c-.02-.41-.04-.82-.04-1.21s.01-.77.04-1.12l-.3.4-.4-.34c.22-.32.46-.72.7-1.2l.73.14Z" style="fill: #e58309;"/>
                      <path d="M267.26,163.3c-.27,0-.5-.1-.67-.3-.17-.2-.26-.44-.26-.71,0-.34.12-.65.36-.92s.51-.41.82-.41c.24,0,.47.1.67.29.11.1.19.25.26.44s.1.41.1.66c0,.56-.4,1.34-1.2,2.33l-.5-.35c.31-.35.58-.72.83-1.12-.17.06-.3.09-.4.09ZM267.31,162.72c.17,0,.35-.08.56-.24.01-.08.02-.15.02-.19,0-.26-.04-.46-.12-.58-.08-.12-.18-.18-.3-.18s-.24.08-.35.23-.17.33-.17.52c0,.12.03.22.1.3.06.08.15.13.25.13Z" style="fill: #e58309;"/>
                      <path d="M270.1,164.59c-.29,0-.54-.09-.74-.28-.21-.19-.31-.43-.31-.73s.14-.58.42-.83c-.23-.21-.34-.46-.34-.75s.11-.54.32-.76c.21-.22.47-.33.76-.33s.52.1.7.31.26.42.26.64c0,.34-.16.63-.49.88.15.08.26.19.35.33s.13.29.13.47c0,.25-.1.49-.31.71-.21.22-.46.33-.74.33ZM270.11,164.01c.11,0,.21-.04.29-.11.08-.07.12-.16.12-.27s-.03-.2-.08-.28-.11-.14-.17-.18-.13-.09-.23-.14c-.24.16-.36.34-.36.55,0,.12.04.22.13.3.08.08.18.12.3.12ZM270.17,161.5c-.11,0-.2.04-.29.13-.08.09-.12.18-.12.28s.03.2.09.3c.06.1.12.17.2.22.15-.09.27-.18.35-.26.08-.08.13-.17.13-.27s-.03-.18-.1-.27c-.07-.09-.15-.13-.26-.13Z" style="fill: #e58309;"/>
                      <path d="M273.68,160.99v.58c-.28,0-.59.03-.93.08,0,.04-.04.28-.11.73.36,0,.65.07.86.23.21.15.32.36.32.64,0,.63-.58,1.07-1.74,1.31l-.15-.57c.8-.18,1.2-.41,1.2-.69,0-.1-.05-.18-.16-.24s-.23-.1-.38-.1c-.05,0-.18.02-.4.07l-.31-.24.3-1.6c.59-.13,1.09-.19,1.49-.19Z" style="fill: #e58309;"/>
                    </g>
                    <g>
                      <path d="M288.97,95.67c0,9.87-11.66,17.87-26.04,17.87s-26.04-8-26.04-17.87,8.54-18.21,22.92-18.21,29.15,8.34,29.15,18.21Z" style="fill: #fef5cc;"/>
                      <g>
                        <g>
                          <path d="M245.74,92.88c-.09-1.53-.13-2.86-.13-4s.03-2.32.08-3.56l-1.58.22-.29-1.5c.85-.15,1.69-.25,2.52-.32l2.42-.13.25,1.44c-.48.03-1.01.06-1.61.12-.05,1.25-.08,2.39-.08,3.42s.02,2.52.05,4.46l-1.63-.14Z" style="fill: #ea493d;"/>
                          <path d="M252.25,93.3c-.83,0-1.52-.37-2.09-1.11-.57-.74-.85-1.86-.85-3.37s.31-2.74.93-3.69c.62-.95,1.35-1.43,2.18-1.43s1.54.37,2.09,1.12c.56.74.84,1.86.84,3.36s-.31,2.72-.93,3.68c-.62.96-1.35,1.44-2.17,1.44ZM251.45,86.25c-.28.67-.42,1.51-.42,2.53s.12,1.77.36,2.26c.24.49.53.73.89.73s.67-.34.94-1.01c.27-.67.41-1.52.41-2.53s-.12-1.77-.34-2.25c-.23-.48-.51-.73-.85-.73-.38,0-.71.33-.99,1Z" style="fill: #ea493d;"/>
                          <path d="M256.35,92.93c-.07-2.25-.1-3.94-.1-5.08s.07-2.36.22-3.66l2.44.19c.3,1.09.62,2.61.96,4.58.48-1.58.91-3.29,1.28-5.13l2.45.22c.07,2.67.1,4.62.1,5.85s-.04,2.33-.12,3.29l-1.78-.17c.11-1.09.21-3.4.29-6.92h-.1c-.09.32-.22.9-.42,1.72-.4,1.7-.78,3.16-1.15,4.36l-1.18-.1c-.21-.83-.45-1.9-.72-3.22-.27-1.32-.48-2.29-.63-2.91h-.1c.08,2.87.17,5.26.27,7.14l-1.71-.16Z" style="fill: #ea493d;"/>
                          <path d="M268.63,92.73l-.3-1.8-1.93.08-.49,2.44-1.82-.16,2.32-9.4,2.4.21,1.7,8.79-1.88-.16ZM267.49,85.58l-.82,4.03,1.45-.05-.64-3.98Z" style="fill: #ea493d;"/>
                          <path d="M272.28,92.88c-.09-1.53-.13-2.86-.13-4s.03-2.32.08-3.56l-1.58.22-.29-1.5c.85-.15,1.69-.25,2.52-.32l2.42-.13.25,1.44c-.48.03-1.01.06-1.61.12-.05,1.25-.08,2.39-.08,3.42s.02,2.52.05,4.46l-1.63-.14Z" style="fill: #ea493d;"/>
                          <path d="M278.79,93.3c-.83,0-1.52-.37-2.09-1.11-.57-.74-.85-1.86-.85-3.37s.31-2.74.93-3.69c.62-.95,1.35-1.43,2.18-1.43s1.54.37,2.09,1.12c.56.74.84,1.86.84,3.36s-.31,2.72-.93,3.68c-.62.96-1.35,1.44-2.17,1.44ZM277.99,86.25c-.28.67-.42,1.51-.42,2.53s.12,1.77.36,2.26c.24.49.53.73.89.73s.67-.34.94-1.01c.27-.67.41-1.52.41-2.53s-.12-1.77-.34-2.25c-.23-.48-.51-.73-.85-.73-.38,0-.71.33-.99,1Z" style="fill: #ea493d;"/>
                        </g>
                        <g>
                          <path d="M252.12,97.14l-1.36,2.49c-2.55-1.12-3.81-1.28-3.75-.46.16.36.69.66,1.6.89,2.7,1.11,4.01,2.44,3.94,3.97.03.98-.58,1.79-1.8,2.42-.49.26-1.27.42-2.34.49-1.23.04-2.63-.41-4.2-1.33l1.08-2.4c2.39.97,3.58,1.1,3.57.42-.09-.33-1.11-.89-3.07-1.68-1.26-.69-1.89-1.67-1.87-2.93-.11-1.29.66-2.35,2.31-3.17,1.98-.52,3.95-.09,5.89,1.29Z" style="fill: #ea493d;"/>
                          <path d="M258.78,95.63c1.84.04,3.12.86,3.86,2.46.21.64.3,1.35.27,2.12,0,1.81-.64,3.51-1.93,5.11-1.04,1.02-2.37,1.53-3.98,1.53-1.88-.15-3.1-1.18-3.67-3.09-.17-.62-.26-1.31-.25-2.09.21-2.83,1.52-4.74,3.91-5.74.63-.2,1.23-.31,1.79-.31ZM256.19,101.94c.11,1.02.58,1.53,1.39,1.53.75,0,1.5-.53,2.26-1.6.25-.46.36-1.04.33-1.72,0-1.02-.44-1.53-1.33-1.53s-1.73.67-2.46,2c-.16.45-.23.89-.2,1.32Z" style="fill: #ea493d;"/>
                          <path d="M263.67,95.63l3.25.45c-.07,2.06-.06,4.18.02,6.34.15.43.43.6.84.49.86.03,1.1-2.14.72-6.52l3.49-.63c.06,2.65-.26,5.38-.96,8.18-.64,1.83-1.85,2.81-3.62,2.92-2.42,0-3.64-1.75-3.64-5.26l-.1-5.96Z" style="fill: #ea493d;"/>
                          <path d="M278.52,95.73c1.63.24,2.78,1.06,3.44,2.48.13.35.16.75.1,1.21-.19,1.33-1.14,2.28-2.86,2.85-.73.19-1.37.28-1.91.27l.19,4.01-3.52.38-1.21-10.82c2.81-.4,4.73-.53,5.77-.38ZM277,98.84l.09,1.23c1.27-.1,1.93-.33,1.97-.67.05-.35-.14-.58-.56-.7-.49-.06-.99-.02-1.5.14Z" style="fill: #ea493d;"/>
                        </g>
                      </g>
                    </g>
                  </g>
                  <path d="M299.47,174.81h-72.64c.09-3.43.18-6.86.25-10.27,10.13-1.32,20.09-4.04,29.26-8.5,10.65-5.17,20.22-12.75,27.13-22.38,9.88-13.78,13.75-30.66,16.38-47.58-.61,9.73-1.05,19.4-1.29,29.04-.52,20.09-.23,39.99.91,59.69Z" style="fill: #edd494; mix-blend-mode: multiply;"/>
                  <path d="M230.59,129.19c.09,2.06.23,4.28,1.52,5.89,1.17-1.63,1.25-3.78,1.28-5.78.27-15.45.54-30.9.8-46.35.04-2.53-.04-5.38-1.9-7.1-.76-.7-2.72-1.64-3.65-.74-.76.74-.27,2.8-.23,3.72.19,4.04.35,8.08.52,12.11.35,8.13.7,16.27,1.05,24.4.2,4.61.4,9.23.6,13.84Z" style="fill: #fff; opacity: .6;"/>
                </g>
                <path d="M221.02,71.26v-8.48c28.2-.1,56.82-1.47,85.84-4.01l-1.61,12.48h-84.23Z" style="fill: #f4d956;"/>
                <path d="M222.61,181.05v-8.47c28.09.12,56.17-1.21,84.26-4.01l-1.58,12.48h-82.67Z" style="fill: #f4d956;"/>
              </g>
              <g>
                <g>
                  <path d="M321.09,24.01c4.2,9.73,6.75,20.18,7.49,30.76,7.43,1.84,15.45,1.8,22.75-.49.62-10.2,2.69-20.23,6.21-29.82-11.57-3.38-24.75-3.37-36.45-.45Z" style="fill: #f4d956;"/>
                  <g>
                    <path d="M330.98,26.87c-1.72,0-1.72,2.67,0,2.67s1.72-2.67,0-2.67Z" style="fill: #e58309;"/>
                    <path d="M337.95,29.63c-3.43,0-3.44,5.33,0,5.33s3.44-5.33,0-5.33Z" style="fill: #e58309;"/>
                    <path d="M347.99,27.28c-1.72,0-1.72,2.67,0,2.67s1.72-2.67,0-2.67Z" style="fill: #e58309;"/>
                    <path d="M345.12,39.02c-4,0-4.01,6.22,0,6.22s4.01-6.22,0-6.22Z" style="fill: #e58309;"/>
                    <path d="M336.1,42.81c-2.29,0-2.29,3.56,0,3.56s2.29-3.56,0-3.56Z" style="fill: #e58309;"/>
                    <path d="M341.43,48.92c-2.86,0-2.86,4.45,0,4.45s2.86-4.45,0-4.45Z" style="fill: #e58309;"/>
                    <path d="M341.43,23.59c-1.72,0-1.72,2.67,0,2.67s1.72-2.67,0-2.67Z" style="fill: #e58309;"/>
                    <path d="M350.24,33.8c-2.29,0-2.29,3.56,0,3.56s2.29-3.56,0-3.56Z" style="fill: #e58309;"/>
                  </g>
                </g>
                <g>
                  <g>
                    <path d="M372.67,124.11c-.21,13.19-.47,26.36-.8,39.54-.09,3.79-.23,7.78-2.21,11.02-3.05,4.98-9.42,6.63-15.2,7.42-13.09,1.8-26.47,1.4-39.43-1.16-2.56-.51-5.26-1.2-7.01-3.13-2.15-2.39-2.21-5.95-2.15-9.17.05-2.64.1-5.29.15-7.93.38-20.83.78-41.67,1.16-62.5.13-6.85.29-13.92,3.07-20.18,2.55-5.75,7.14-10.44,9.5-16.28,3.11-7.67,1.98-16.21.21-24.42-.47-2.17,1.18-4.22,3.4-4.22l30.85-.07c2.32,0,3.98,2.22,3.35,4.46-1.65,5.91-1.56,12.31.33,18.15,1.82,5.59,5.17,10.54,7.69,15.85.64,1.35,1.22,2.72,1.75,4.1,5.85,15.16,5.57,32.2,5.32,48.51Z" style="fill: #abc6db;"/>
                    <path d="M314.85,106.88c.15-3.42.55-7.33,3.26-9.1,2.25-1.47,5.28-.9,7.92.02,2.64.92,5.32,2.16,8.02,1.88,2.8-.29,5.19-2.19,8-2.4,3.76-.28,8.17,2.4,11.06.04,2.13-1.74,2.77-5.85,5.56-5.68,2.51.15,3.42,3.61,3.56,6.21,1.19,21.99,2.34,44.07.39,65.8-.3,3.37-.81,7-3.16,9.22-3.08,2.92-8.06,2.39-12.01,2.44-5.99.07-12.24-.06-18.33-.23-4.08-.12-13.25,1.29-16.1-3.06-1.42-2.16-.71-5.49-.62-7.8.15-3.62.31-7.24.46-10.85.31-7.35.63-14.7.94-22.05.35-8.14.69-16.28,1.04-24.42Z" style="fill: #fff;"/>
                    <g>
                      <path d="M363.67,110.06c0,17.69-11.92,35.44-24.35,35.44s-24.35-12.12-24.35-29.81,11.92-34.25,24.35-34.25,24.35,10.93,24.35,28.62Z" style="fill: #4b63a9;"/>
                      <g>
                        <g>
                          <path d="M323.74,114.47h1.88l1.24,2.31,1.04-2.31h2l2.72,7.9-3.23,2.11-1.52-4.3-.94,1.35-1-1.24-1.12,4.41-3.28-1.76,2.21-8.48Z" style="fill: #fff;"/>
                          <path d="M338.7,114.47l.25,2.89c-.51-.04-1.01-.06-1.49-.06l.22,4.71,1.49.16-.29,2.6h-5.56l-.16-2.53,1.42-.24v-4.78l-1.29.07.35-2.66,5.07-.18Z" style="fill: #fff;"/>
                          <path d="M343.62,114.45l-.54,7.25,4.47-.06c-.08,1.46-.11,2.38-.11,2.77l-7.3.33.39-9.89,3.1-.4Z" style="fill: #fff;"/>
                          <path d="M353.77,114.45l1.4,1.97-2.02,2.4,3.3,3.25-2.58,2.35-2.41-3.03-.17,3.38-3.08-1.07.67-8.7c.13,0,.93-.15,2.41-.45l.17,2.58,2.3-2.69Z" style="fill: #fff;"/>
                        </g>
                        <g>
                          <path d="M328.18,101.93v1.69c-1.02,0-1.98.03-2.88.1-.02.27-.03.73-.05,1.41-.01.67-.03,1.09-.03,1.24,1.02-.14,1.85-.21,2.47-.21l.27,1.51c-1.02.03-1.94.09-2.76.19,0,1.43.02,2.68.05,3.77l-1.85-.21c-.02-1.48-.03-2.86-.03-4.13s.07-2.94.22-5.01c1.56-.24,3.09-.36,4.58-.36Z" style="fill: #fff;"/>
                          <path d="M329.04,111.5c.12-2.19.18-4.15.18-5.87s0-2.85-.01-3.39c1.01-.48,2.05-.71,3.14-.71.8,0,1.48.26,2.02.77s.82,1.23.82,2.17c0,1.08-.76,2.12-2.29,3.11.83,1.04,1.68,2.19,2.55,3.44l-1.32.97c-.58-.87-1.61-2.29-3.1-4.25-.03,1.41-.07,2.73-.12,3.96l-1.87-.21ZM332.8,105.62c.48-.47.71-.9.71-1.28s-.11-.68-.34-.89c-.22-.21-.52-.32-.88-.32s-.77.08-1.21.23c0,1.55,0,2.69-.01,3.44.68-.32,1.25-.72,1.73-1.19Z" style="fill: #fff;"/>
                          <path d="M336.42,111.43c-.04-1.44-.06-2.81-.06-4.1s.07-2.97.22-5.03c1.56-.24,3.09-.36,4.58-.36v1.69c-1.03,0-1.99.03-2.88.1-.04,1.02-.06,1.81-.07,2.36.69-.1,1.52-.16,2.47-.18l.26,1.51c-.61,0-1.53.08-2.76.21,0,1.1,0,1.89.01,2.37.8-.06,1.75-.2,2.85-.41l.23,1.51c-.78.36-1.7.54-2.76.54l-2.11-.19Z" style="fill: #fff;"/>
                          <path d="M345.67,105.38c.12-.45.18-.82.18-1.12s-.08-.55-.25-.75c-.16-.2-.38-.29-.64-.29s-.48.13-.65.38c-.17.26-.26.55-.26.88,0,.64.37,1.19,1.1,1.65.73.48,1.23.82,1.5,1.03.26.21.45.4.56.58.27.45.41.91.41,1.39,0,.82-.28,1.48-.83,1.97s-1.18.73-1.87.73c-.82,0-1.51-.35-2.07-1.04-.4-.5-.77-1.13-1.11-1.88l1.33-.65c.21.55.47,1.01.79,1.39s.65.57,1.01.57c.23,0,.43-.07.62-.22.18-.15.27-.37.27-.67s-.12-.57-.34-.83c-.23-.26-.53-.52-.92-.78-.38-.27-.68-.48-.89-.65-.21-.17-.44-.39-.7-.65-.49-.51-.73-1.17-.73-1.97s.28-1.47.84-2.02c.56-.54,1.22-.82,1.99-.82s1.42.3,1.94.89c.53.59.79,1.21.79,1.83s-.12,1.16-.36,1.61l-1.7-.56Z" style="fill: #fff;"/>
                          <path d="M350.8,104.5v1.58s2.07-.12,2.07-.12c0-1.43.02-2.94.07-4.54l1.81.16c-.08,1.45-.12,3.03-.12,4.73s.05,3.4.15,5.11l-1.76-.15c-.08-.79-.13-2.05-.15-3.79l-2.02.12c.03,1.3.07,2.62.12,3.96l-1.87-.16c-.1-1.93-.15-3.7-.15-5.32s.04-3.02.11-4.2l1.81.16c-.05.81-.08,1.63-.08,2.46Z" style="fill: #fff;"/>
                        </g>
                      </g>
                    </g>
                  </g>
                  <path d="M372.67,124.11c-.21,13.19-.47,26.36-.8,39.54-.09,3.79-.23,7.78-2.21,11.02-3.05,4.98-9.42,6.63-15.2,7.42-13.09,1.8-26.47,1.4-39.43-1.16-2.56-.51-5.26-1.2-7.01-3.13-2.15-2.39-2.21-5.95-2.15-9.17.05-2.64.1-5.29.15-7.93,8.98-.08,18.03-.62,26.64-3.12,9.33-2.71,18.2-7.93,23.68-15.95,4.35-6.38,6.29-14.06,7.72-21.65,2.74-14.62,3.85-29.54,3.29-44.4,5.85,15.16,5.57,32.2,5.32,48.51Z" style="fill: #ccf3ff; mix-blend-mode: multiply;"/>
                  <g style="opacity: .8;">
                    <path d="M315.57,78.78c3.03-4.66,6.82-9.04,8.18-14.44.39-1.55.65-3.3,1.9-4.3,1.3-1.04,3.32-.81,4.61.24,1.29,1.05,1.93,2.74,2.08,4.4.39,4.32-2.14,8.38-5.18,11.48-3.03,3.1-6.66,5.62-9.36,9.01-1.01,1.26-4.09,9.21-6.36,5.66-1.77-2.77,2.68-9.83,4.12-12.05Z" style="fill: #fff; opacity: .6;"/>
                    <path d="M324.99,43.95c-.04-.92.07-2.06.92-2.4.8-.32,1.65.35,2.19,1.02,1.83,2.24,2.85,5.07,3.2,7.94.12.97.16,1.96-.12,2.9-.7,2.33-3.98,3.27-5.05.75-1.23-2.9-1-7.1-1.14-10.21Z" style="fill: #fff; opacity: .6;"/>
                  </g>
                </g>
              </g>
            </g>
            <g>
              <path d="M0,180.15c.03,1.22.05,2.43.07,3.65.13,6.01.17,12.02.14,18.04h398.87v-21.69H0Z" style="fill: #ffaf50;"/>
              <g style="mix-blend-mode: multiply;">
                <path d="M387.62,193.3c3.91.84,7.73,2,11.46,3.42v2.25c-17.41-6.77-37.11-7.17-54.87-1.4-3.57,1.16-7.04,2.6-10.4,4.26h-4.57c17.6-9.8,38.71-12.78,58.38-8.53Z" style="fill: #efbc97;"/>
                <path d="M351.43,201.57c14.14-6.49,30.84-6.35,44.87.26h-5.59c-10.99-3.88-23.26-3.92-34.27,0h-5.36c.09-.1.2-.19.35-.26Z" style="fill: #efbc97;"/>
                <path d="M224.12,198.8c3.86.77,7.65,1.81,11.39,3.03h-7.79c-11.45-2.81-23.41-3.5-34.71,0h-6.01c11.47-5.04,24.76-5.5,37.12-3.03Z" style="fill: #efbc97;"/>
                <path d="M193.72,192.58c20.3-1.13,40.76.49,60.63,4.82,5.72,1.25,11.39,2.72,16.98,4.42h-7.79c-11.62-3.1-23.49-5.25-35.47-6.41-20.12-1.95-40.53-1.22-60.44,2.29-6.24,1.1-12.43,2.48-18.56,4.12h-7.77c17.02-5.17,34.65-8.26,52.41-9.25Z" style="fill: #efbc97;"/>
                <path d="M313.34,187.72c-17.35,1.03-34.8.07-51.94-2.84-7.22-1.22-14.38-2.81-21.45-4.73h8.79c11.63,2.7,23.46,4.49,35.38,5.31,17.22,1.18,34.59.43,51.64-2.32,5.08-.82,10.13-1.83,15.14-2.99h8.67c-15.1,4.1-30.61,6.64-46.24,7.57Z" style="fill: #efbc97;"/>
                <path d="M399.08,191.84c-25.56-11.02-53.84-.25-79.86,3.33-27.81,3.82-54.97-3.01-82.26-7.41-14.13-2.28-28.33-3.65-42.64-2.7-14.1.93-28,3.65-41.81,6.55-13.8,2.89-27.58,5.96-41.58,7.75-13.21,1.69-26.56,2.07-39.85,1.13-24.51-1.73-48.69-7.85-71.04-18.06-.02-.76-.02-1.52-.04-2.28h.22c20.17,9.31,41.86,15.29,63.97,17.61,13.16,1.38,26.45,1.48,39.62.26,14.17-1.31,28.13-4.24,42.03-7.18,13.76-2.9,27.54-5.84,41.54-7.31,13.88-1.46,27.66-.97,41.48.89,27.68,3.73,55.21,11.86,83.38,9.42,26.92-2.33,54.14-14.12,81.2-6.28,1.92.56,3.79,1.23,5.63,1.99v2.3Z" style="fill: #efbc97;"/>
                <path d="M.17,189.9c0-.83-.03-1.66-.04-2.49,10.01,5.77,20.53,10.62,31.43,14.42h-6.14c-8.7-3.34-17.14-7.33-25.25-11.93Z" style="fill: #efbc97;"/>
                <path d="M44.25,180.28c-.13-.04-.26-.09-.4-.13h8.07c14.95,3.53,30.67,3.83,45.75.81,1.21-.24,2.42-.52,3.63-.81h7.94c-20.97,6.64-43.98,6.64-64.99.13Z" style="fill: #efbc97;"/>
                <path d="M91.67,191.97c-20,1.59-40.31-.39-59.6-5.91-5.77-1.65-11.44-3.63-16.98-5.91h5.82c11.99,4.46,24.5,7.48,37.2,9.02,19.59,2.36,39.6,1.29,58.8-3.31,6.33-1.52,12.56-3.43,18.66-5.7h5.77c-15.81,6.51-32.61,10.47-49.67,11.82Z" style="fill: #efbc97;"/>
              </g>
              <path d="M.08,183.8c.13,6.01.17,12.02.14,18.04h398.87v-5.2c-51.47-2.1-342.55-11.09-399.01-12.84Z" style="fill: #efbc97; mix-blend-mode: multiply;"/>
            </g>
          </g>
        </g>
      </g>
    </g>
  </g>
</svg>